<?xml version="1.0" encoding="UTF-8"?>
<svg xmlns="http://www.w3.org/2000/svg" xmlns:xlink="http://www.w3.org/1999/xlink" width="274.72pt" height="271.65pt" viewBox="0 0 274.72 271.65" version="1.1">
<defs>
<clipPath id="clip1">
  <path d="M 22 173 L 274.71875 173 L 274.71875 271.648438 L 22 271.648438 Z M 22 173 "/>
</clipPath>
<clipPath id="clip2">
  <path d="M 6 157 L 74 157 L 74 271.648438 L 6 271.648438 Z M 6 157 "/>
</clipPath>
</defs>
<g id="surface1">
<path style=" stroke:none;fill-rule:evenodd;fill:rgb(0%,0%,0%);fill-opacity:1;" d="M 177.585938 39.359375 L 166.902344 77.597656 L 135.414063 77.597656 L 142.726563 39.359375 Z M 177.585938 39.359375 "/>
<path style="fill:none;stroke-width:25.62;stroke-linecap:round;stroke-linejoin:round;stroke:rgb(0%,0%,0%);stroke-opacity:1;stroke-miterlimit:10;" d="M 1775.859375 2322.90625 L 1669.023438 1940.523438 L 1354.140625 1940.523438 L 1427.265625 2322.90625 L 1775.859375 2322.90625 " transform="matrix(0.1,0,0,-0.1,0,271.65)"/>
<path style=" stroke:none;fill-rule:evenodd;fill:rgb(93.299866%,15.699768%,20.799255%);fill-opacity:1;" d="M 163.527344 21.367188 L 153.40625 59.035156 L 121.921875 59.035156 L 128.667969 21.367188 Z M 163.527344 21.367188 "/>
<path style="fill:none;stroke-width:23.29;stroke-linecap:round;stroke-linejoin:round;stroke:rgb(0%,0%,0%);stroke-opacity:1;stroke-miterlimit:10;" d="M 1635.273438 2502.828125 L 1534.0625 2126.148438 L 1219.21875 2126.148438 L 1286.679688 2502.828125 L 1635.273438 2502.828125 " transform="matrix(0.1,0,0,-0.1,0,271.65)"/>
<g clip-path="url(#clip1)" clip-rule="nonzero">
<path style=" stroke:none;fill-rule:evenodd;fill:rgb(0%,0%,0%);fill-opacity:1;" d="M 237.75 190.609375 L 200.636719 182.175781 L 195.015625 178.804688 C 194.449219 176.550781 193.328125 175.433594 191.640625 174.871094 L 186.023438 173.746094 L 182.085938 174.308594 L 168.03125 178.238281 L 81.4375 189.488281 L 75.8125 190.609375 L 70.1875 192.300781 L 62.878906 193.988281 L 55.574219 195.671875 C 49.386719 197.359375 44.886719 199.046875 42.074219 201.859375 C 35.886719 209.164063 30.828125 222.664063 26.894531 242.339844 L 23.519531 262.019531 L 22.398438 271.578125 L 233.816406 271.578125 L 256.300781 256.394531 L 261.929688 251.902344 L 266.988281 246.835938 C 270.359375 242.902344 272.609375 238.402344 273.734375 233.34375 C 275.417969 228.28125 274.863281 223.21875 272.609375 218.167969 C 270.359375 211.976563 266.425781 206.355469 260.234375 202.421875 C 255.746094 199.605469 249.558594 196.796875 242.246094 195.105469 L 242.246094 194.550781 L 240.5625 191.734375 "/>
</g>
<path style=" stroke:none;fill-rule:evenodd;fill:rgb(47.499084%,71.398926%,23.899841%);fill-opacity:1;" d="M 192.203125 177.679688 L 192.765625 179.929688 L 162.402344 183.300781 C 166.335938 178.804688 175.902344 175.996094 190.515625 175.433594 "/>
<path style=" stroke:none;fill-rule:evenodd;fill:rgb(47.499084%,71.398926%,23.899841%);fill-opacity:1;" d="M 196.699219 184.425781 L 195.578125 181.050781 C 198.390625 182.738281 200.636719 184.988281 202.890625 188.363281 L 197.828125 188.363281 "/>
<path style=" stroke:none;fill-rule:evenodd;fill:rgb(47.499084%,71.398926%,23.899841%);fill-opacity:1;" d="M 239.4375 193.421875 L 239.992188 194.550781 L 222.566406 191.734375 L 205.699219 188.363281 L 204.570313 186.675781 L 204.015625 184.988281 C 219.761719 187.800781 231.566406 190.609375 239.4375 193.421875 "/>
<path style=" stroke:none;fill-rule:evenodd;fill:rgb(48.199463%,16.099548%,53.69873%);fill-opacity:1;" d="M 191.640625 241.21875 L 193.894531 259.210938 C 208.507813 255.277344 220.886719 249.652344 230.441406 242.34375 L 232.691406 236.722656 L 236.0625 224.910156 C 238.875 212.539063 240.5625 202.984375 239.992188 196.230469 L 206.261719 190.050781 L 208.507813 197.359375 L 207.949219 198.480469 L 207.949219 197.921875 L 207.386719 198.480469 L 203.449219 190.050781 L 200.636719 189.488281 L 197.828125 189.488281 L 197.828125 195.671875 L 195.574219 188.367188 L 192.765625 181.050781 L 165.78125 184.988281 L 160.15625 183.300781 L 153.40625 181.613281 L 143.851563 183.300781 L 131.476563 184.988281 L 123.046875 186.675781 L 107.863281 188.367188 L 105.050781 197.359375 C 98.300781 201.296875 88.742188 205.230469 76.375 208.042969 L 72.441406 208.605469 L 69.066406 210.289063 L 70.191406 213.664063 L 67.9375 210.851563 C 65.128906 216.476563 62.875 223.785156 60.066406 232.78125 L 53.324219 255.277344 L 54.445313 255.835938 L 55.574219 256.957031 L 52.195313 262.019531 L 48.261719 268.207031 L 69.632813 267.644531 L 71.316406 255.835938 L 74.125 245.152344 L 74.6875 245.71875 L 73 267.644531 L 191.082031 267.644531 L 188.269531 237.839844 L 187.707031 236.15625 L 188.832031 234.46875 L 191.082031 237.277344 "/>
<path style=" stroke:none;fill-rule:evenodd;fill:rgb(47.499084%,71.398926%,23.899841%);fill-opacity:1;" d="M 265.300781 209.726563 C 266.425781 211.976563 266.425781 214.789063 265.863281 218.167969 L 262.488281 225.472656 L 257.429688 230.535156 L 255.742188 231.097656 L 254.050781 229.972656 C 251.242188 226.035156 246.179688 223.222656 239.992188 221.535156 C 241.6875 214.226563 242.816406 205.792969 243.371094 197.359375 L 255.175781 201.859375 C 259.109375 204.109375 262.488281 206.917969 265.300781 209.726563 "/>
<path style=" stroke:none;fill-rule:evenodd;fill:rgb(47.499084%,71.398926%,23.899841%);fill-opacity:1;" d="M 258.554688 250.214844 C 260.234375 242.902344 259.109375 237.277344 256.300781 233.34375 L 262.488281 228.28125 L 266.988281 220.972656 L 268.105469 213.101563 C 270.359375 217.039063 271.484375 220.972656 272.054688 225.472656 C 272.609375 229.972656 271.484375 234.46875 269.234375 238.402344 L 262.488281 246.835938 "/>
<path style=" stroke:none;fill-rule:evenodd;fill:rgb(65.899658%,59.999084%,59.199524%);fill-opacity:1;" d="M 197.828125 261.457031 C 199.511719 260.894531 202.886719 259.773438 206.820313 258.085938 L 215.824219 254.152344 C 223.128906 251.335938 228.757813 247.398438 232.691406 242.902344 L 236.628906 233.34375 L 239.4375 224.34375 C 243.371094 224.910156 246.179688 226.035156 249 227.71875 C 252.371094 229.972656 254.621094 232.78125 255.746094 236.71875 C 257.429688 241.777344 257.996094 246.28125 256.871094 251.335938 L 245.054688 260.335938 L 232.691406 267.644531 L 194.449219 268.207031 L 194.449219 263.707031 "/>
<path style=" stroke:none;fill-rule:evenodd;fill:rgb(97.299194%,85.499573%,4.699707%);fill-opacity:1;" d="M 16.773438 249.089844 L 6.648438 253.589844 L 18.460938 237.839844 L 35.332031 213.664063 L 41.515625 205.792969 C 46.574219 200.171875 52.195313 197.359375 57.824219 197.359375 L 70.1875 193.988281 L 83.6875 190.609375 L 89.867188 192.300781 L 61.195313 202.984375 L 56.132813 201.859375 L 51.070313 201.859375 L 51.632813 201.859375 C 40.390625 220.410156 31.953125 235.03125 26.894531 246.28125 "/>
<path style=" stroke:none;fill-rule:evenodd;fill:rgb(47.499084%,71.398926%,23.899841%);fill-opacity:1;" d="M 102.238281 196.792969 L 84.808594 203.546875 L 66.816406 208.609375 L 64.570313 203.546875 L 78.058594 199.046875 L 92.683594 193.421875 "/>
<path style=" stroke:none;fill-rule:evenodd;fill:rgb(97.299194%,85.499573%,4.699707%);fill-opacity:1;" d="M 28.582031 245.71875 L 40.390625 223.785156 L 53.324219 202.421875 L 55.574219 202.984375 L 57.824219 204.109375 L 40.953125 246.835938 L 34.761719 245.71875 "/>
<path style=" stroke:none;fill-rule:evenodd;fill:rgb(47.499084%,71.398926%,23.899841%);fill-opacity:1;" d="M 47.136719 250.777344 L 42.074219 247.964844 L 49.945313 228.28125 L 58.382813 208.042969 L 59.511719 204.664063 C 62.316406 205.792969 64 206.917969 65.128906 208.609375 L 64.570313 211.976563 L 63.445313 214.226563 L 58.941406 227.71875 L 55.007813 242.34375 L 53.324219 248.523438 L 51.632813 254.152344 "/>
<path style=" stroke:none;fill-rule:evenodd;fill:rgb(65.899658%,59.999084%,59.199524%);fill-opacity:1;" d="M 46.011719 224.910156 C 49.945313 228.84375 52.195313 235.03125 53.320313 243.464844 L 52.757813 253.023438 L 51.070313 259.773438 L 49.386719 262.582031 L 44.886719 265.957031 C 40.390625 268.773438 35.332031 269.332031 29.710938 268.773438 L 13.960938 269.890625 C 8.34375 268.773438 4.402344 265.394531 2.714844 259.773438 C 0.464844 253.589844 -0.0976563 246.835938 1.03125 239.527344 C 2.152344 232.222656 4.402344 226.035156 7.773438 220.410156 C 16.773438 217.605469 25.210938 216.480469 33.082031 217.039063 L 39.824219 219.847656 "/>
<path style="fill:none;stroke-width:9.32;stroke-linecap:round;stroke-linejoin:round;stroke:rgb(0%,0%,0%);stroke-opacity:1;stroke-miterlimit:10;" d="M 460.117188 467.398438 C 499.453125 428.0625 521.953125 366.1875 533.203125 281.851563 L 527.578125 186.265625 L 510.703125 118.765625 L 493.867188 90.679688 L 448.867188 56.929688 C 403.90625 28.765625 353.320313 23.179688 297.109375 28.765625 L 139.609375 17.59375 C 83.4375 28.765625 44.023438 62.554688 27.148438 118.765625 C 4.648438 180.601563 -0.976563 248.140625 10.3125 321.226563 C 21.523438 394.273438 44.023438 456.148438 77.734375 512.398438 C 167.734375 540.445313 252.109375 551.695313 330.820313 546.109375 L 398.242188 518.023438 L 460.117188 467.398438 " transform="matrix(0.1,0,0,-0.1,0,271.65)"/>
<g clip-path="url(#clip2)" clip-rule="nonzero">
<path style=" stroke:none;fill-rule:evenodd;fill:rgb(0%,0%,0%);fill-opacity:1;" d="M 7.773438 238.964844 C 7.21875 236.722656 6.648438 233.90625 6.648438 231.097656 L 7.773438 223.21875 L 8.34375 214.789063 L 10.023438 206.917969 C 11.152344 200.171875 11.152344 194.550781 10.589844 190.054688 L 6.648438 173.179688 C 6.089844 168.117188 6.648438 164.1875 9.460938 161.371094 C 12.277344 159.121094 15.089844 157.996094 19.023438 157.433594 C 22.957031 156.875 26.332031 157.996094 29.144531 159.6875 L 33.082031 163.621094 L 35.886719 168.117188 L 37.574219 175.433594 L 37.574219 181.050781 L 37.015625 187.238281 L 37.574219 195.105469 L 37.574219 195.671875 C 41.515625 192.859375 46.574219 191.734375 53.882813 191.734375 C 60.628906 191.171875 66.253906 192.300781 70.1875 195.105469 C 73 198.480469 74.125 202.984375 73.566406 208.605469 L 71.316406 214.789063 L 69.632813 220.410156 C 70.753906 224.34375 71.316406 228.28125 70.753906 232.222656 C 70.1875 236.15625 68.503906 238.964844 66.253906 241.777344 L 66.816406 246.835938 L 67.378906 252.464844 C 66.816406 256.960938 65.6875 260.335938 62.878906 262.019531 C 56.695313 267.644531 48.820313 271.015625 39.824219 271.578125 C 29.710938 272.140625 21.832031 269.332031 16.773438 263.144531 L 12.835938 257.523438 C 9.460938 251.335938 7.773438 245.152344 7.773438 238.964844 "/>
</g>
<path style=" stroke:none;fill-rule:evenodd;fill:rgb(65.899658%,59.999084%,59.199524%);fill-opacity:1;" d="M 10.027344 234.46875 L 10.027344 223.785156 L 11.710938 213.101563 C 13.402344 205.792969 13.960938 197.921875 12.835938 190.609375 L 10.589844 179.929688 L 8.34375 168.117188 C 8.34375 166.4375 8.902344 164.746094 10.589844 163.621094 C 11.152344 163.058594 12.277344 162.496094 14.527344 160.8125 L 24.644531 160.8125 C 28.582031 162.496094 31.398438 164.746094 33.082031 168.117188 C 34.761719 171.492188 35.886719 174.871094 35.332031 177.679688 L 34.761719 181.613281 L 34.761719 187.238281 L 35.332031 192.859375 L 35.886719 197.921875 L 33.644531 199.609375 C 32.515625 200.171875 31.953125 200.730469 32.515625 201.296875 C 34.203125 200.171875 36.457031 199.609375 39.265625 199.609375 L 46.011719 200.171875 L 53.324219 200.730469 L 60.066406 200.171875 L 60.066406 199.046875 L 56.695313 199.046875 L 53.324219 198.484375 L 57.824219 197.359375 L 62.875 196.792969 L 55.007813 196.230469 L 49.945313 197.921875 L 39.265625 196.792969 C 42.640625 195.109375 47.136719 193.988281 53.324219 193.421875 C 59.511719 192.859375 64.570313 193.988281 67.9375 195.671875 L 71.316406 201.296875 C 71.878906 203.546875 71.878906 205.792969 71.316406 208.042969 L 69.628906 214.226563 C 68.503906 216.476563 66.816406 217.601563 64.570313 218.167969 C 61.753906 219.285156 58.382813 220.972656 53.324219 222.660156 L 42.074219 227.160156 L 42.640625 228.28125 L 46.574219 227.160156 C 44.886719 228.84375 43.765625 230.535156 43.765625 231.660156 L 44.328125 231.660156 C 47.136719 228.84375 51.632813 226.035156 57.824219 223.21875 L 64 220.410156 L 66.816406 219.847656 C 68.503906 222.660156 69.628906 226.035156 69.066406 230.535156 C 68.503906 235.03125 67.378906 238.402344 64.570313 241.21875 L 54.449219 246.835938 C 49.386719 249.085938 45.453125 251.335938 43.765625 253.585938 L 46.574219 252.464844 L 46.011719 254.152344 C 45.453125 254.714844 45.453125 255.277344 46.011719 255.835938 C 47.699219 253.023438 50.511719 250.777344 54.449219 249.085938 L 59.511719 246.835938 L 64 245.152344 C 65.691406 245.71875 66.253906 247.964844 65.691406 251.335938 C 65.128906 258.648438 59.511719 263.707031 49.945313 266.519531 L 34.203125 268.769531 L 26.332031 266.519531 C 21.832031 264.832031 18.460938 261.457031 15.652344 256.957031 C 12.835938 252.464844 11.152344 247.964844 10.589844 242.902344 "/>
<path style=" stroke:none;fill-rule:evenodd;fill:rgb(0%,0%,0%);fill-opacity:1;" d="M 152.847656 196.230469 C 156.21875 191.738281 161.84375 186.113281 169.714844 179.367188 L 172.523438 178.242188 L 179.273438 174.871094 L 187.144531 170.371094 L 191.082031 168.117188 L 198.953125 161.9375 C 206.824219 155.753906 211.882813 150.128906 214.132813 146.191406 C 216.941406 142.257813 218.066406 138.324219 218.636719 133.261719 C 218.636719 128.199219 217.507813 124.265625 215.257813 120.324219 C 213.007813 116.953125 210.199219 114.707031 206.257813 113.019531 L 194.449219 110.207031 L 200.636719 105.148438 C 205.699219 98.960938 209.074219 91.652344 211.882813 82.652344 C 214.132813 75.34375 215.824219 66.347656 216.382813 55.664063 L 219.191406 52.855469 C 219.761719 51.164063 220.316406 50.039063 219.761719 48.917969 C 220.316406 47.796875 219.761719 47.230469 219.191406 47.230469 L 216.382813 45.539063 C 215.824219 37.671875 215.257813 31.488281 214.695313 26.988281 L 211.320313 16.867188 L 205.699219 7.867188 C 204.015625 5.0625 201.199219 3.371094 197.828125 2.25 L 188.269531 -0.00390625 C 182.085938 0.5625 176.457031 3.933594 171.398438 10.121094 C 168.03125 14.054688 164.652344 19.679688 160.71875 26.988281 L 154.53125 19.679688 C 147.785156 12.367188 136.539063 8.433594 121.359375 8.433594 L 116.292969 8.433594 L 110.675781 8.996094 L 105.050781 9.558594 L 93.808594 11.808594 C 81.996094 16.867188 71.878906 23.050781 64.570313 30.363281 L 59.511719 24.175781 L 53.320313 19.117188 C 49.386719 16.304688 44.328125 15.179688 39.265625 15.179688 C 34.207031 15.179688 29.144531 16.304688 24.644531 19.117188 C 16.773438 23.613281 11.710938 32.046875 8.902344 44.421875 C 6.648438 53.976563 6.648438 64.097656 8.902344 74.78125 L 13.402344 91.652344 C 22.957031 113.582031 35.332031 125.949219 51.070313 127.636719 L 42.640625 135.507813 C 39.824219 138.324219 38.140625 141.695313 37.578125 145.066406 C 36.457031 149.003906 36.457031 152.9375 38.140625 155.753906 C 41.515625 166.4375 50.511719 175.433594 64.570313 183.300781 L 84.808594 191.171875 L 109.550781 199.046875 L 111.804688 201.296875 L 115.738281 205.230469 C 119.671875 209.726563 124.164063 211.980469 128.105469 211.980469 C 132.601563 211.980469 137.664063 210.289063 142.722656 206.917969 C 146.660156 204.109375 150.035156 200.171875 152.847656 196.230469 "/>
<path style=" stroke:none;fill-rule:evenodd;fill:rgb(47.499084%,71.398926%,23.899841%);fill-opacity:1;" d="M 76.375 52.855469 C 73 43.859375 69.632813 37.109375 66.253906 32.609375 L 72.441406 26.421875 L 79.746094 20.804688 C 86.496094 16.304688 93.242188 12.929688 99.992188 11.246094 C 92.117188 18.554688 85.371094 26.421875 79.183594 35.425781 C 77.503906 39.921875 76.375 46.105469 76.933594 53.414063 "/>
<path style=" stroke:none;fill-rule:evenodd;fill:rgb(65.899658%,59.999084%,59.199524%);fill-opacity:1;" d="M 108.988281 195.671875 C 92.683594 191.171875 77.5 185.550781 64.570313 179.367188 C 55.007813 174.308594 47.699219 167.558594 42.640625 159.6875 L 39.824219 150.128906 C 39.824219 146.1875 40.390625 143.378906 41.515625 140.566406 C 46.574219 132.695313 53.324219 127.636719 61.195313 124.824219 L 64.570313 122.578125 L 66.253906 120.890625 L 62.320313 122.015625 L 56.695313 123.703125 C 49.386719 124.824219 42.074219 123.140625 35.886719 118.640625 C 30.269531 114.703125 25.207031 109.078125 21.273438 101.769531 C 15.089844 91.089844 11.152344 78.714844 10.027344 65.785156 C 8.902344 51.726563 11.710938 39.359375 17.898438 29.238281 C 21.832031 22.488281 28.582031 18.554688 38.140625 17.429688 C 42.640625 16.867188 47.136719 17.992188 51.070313 20.804688 C 54.445313 22.488281 57.824219 25.867188 60.628906 30.363281 L 62.875 32.613281 L 68.503906 42.171875 L 76.375 57.355469 L 83.6875 73.65625 L 84.808594 74.78125 L 89.308594 80.96875 L 89.867188 80.402344 L 89.308594 79.28125 L 88.179688 77.03125 L 96.621094 79.839844 L 105.617188 82.089844 L 102.800781 89.402344 L 103.363281 89.960938 L 106.171875 87.152344 L 108.988281 84.902344 C 111.234375 83.214844 113.488281 82.652344 115.738281 83.78125 C 124.164063 84.902344 133.164063 83.214844 143.285156 78.714844 L 155.65625 72.535156 L 168.03125 65.785156 C 166.335938 67.472656 164.652344 69.160156 162.96875 69.722656 L 161.277344 69.722656 L 163.527344 71.972656 L 167.464844 72.535156 L 169.714844 71.972656 L 172.523438 70.285156 C 174.214844 69.160156 175.902344 68.597656 177.027344 69.160156 L 179.273438 71.410156 L 182.644531 73.65625 L 184.332031 84.339844 L 182.089844 84.339844 C 181.519531 80.402344 179.835938 77.597656 177.585938 76.46875 L 171.398438 75.910156 C 166.335938 77.03125 162.96875 83.214844 160.71875 93.894531 L 160.15625 98.398438 L 157.34375 123.140625 C 147.785156 123.703125 139.917969 127.636719 134.855469 134.945313 L 134.289063 134.945313 C 136.539063 125.386719 137.664063 117.515625 137.101563 111.328125 C 136.539063 102.332031 134.289063 95.023438 130.351563 88.839844 C 125.292969 84.339844 121.355469 83.78125 117.980469 87.152344 C 116.292969 88.273438 115.171875 89.960938 114.609375 92.210938 L 112.921875 97.273438 L 111.234375 97.273438 L 108.988281 97.835938 L 110.109375 98.960938 L 112.359375 100.085938 L 111.804688 104.582031 C 111.804688 107.394531 112.359375 112.453125 114.050781 120.324219 C 115.738281 128.199219 116.855469 133.261719 117.980469 134.945313 L 109.550781 133.261719 L 99.429688 132.695313 L 89.867188 132.695313 C 82.558594 133.824219 77.5 137.195313 74.125 143.378906 C 71.878906 147.878906 70.753906 152.9375 71.316406 157.996094 C 71.316406 163.058594 73 168.117188 76.375 172.054688 C 83.6875 181.050781 93.808594 187.800781 107.300781 191.738281 "/>
<path style=" stroke:none;fill-rule:evenodd;fill:rgb(0%,0%,0%);fill-opacity:1;" d="M 56.695313 115.265625 L 44.328125 114.144531 C 40.390625 112.453125 37.015625 110.203125 34.207031 106.828125 C 25.769531 97.835938 20.148438 87.148438 17.339844 74.78125 C 14.523438 61.847656 15.652344 49.480469 20.707031 37.671875 L 24.082031 32.046875 L 29.144531 29.238281 L 33.644531 28.675781 C 38.140625 29.800781 42.640625 32.609375 46.574219 37.109375 C 49.945313 41.046875 52.757813 46.105469 55.007813 51.726563 L 58.382813 61.289063 L 61.195313 71.410156 L 70.1875 93.898438 L 67.9375 97.273438 L 59.511719 96.148438 L 51.070313 93.898438 L 50.511719 93.898438 L 50.511719 96.710938 L 51.070313 100.648438 C 51.632813 104.582031 53.324219 107.953125 56.695313 110.765625 L 58.382813 113.015625 L 58.382813 114.703125 "/>
<path style=" stroke:none;fill-rule:evenodd;fill:rgb(65.899658%,59.999084%,59.199524%);fill-opacity:1;" d="M 178.710938 172.617188 L 191.082031 163.058594 C 206.257813 150.128906 210.757813 137.195313 205.699219 125.386719 C 204.570313 123.140625 202.886719 121.453125 200.078125 120.324219 L 193.328125 118.640625 C 190.515625 118.640625 187.144531 119.765625 182.644531 122.015625 C 178.144531 124.824219 174.773438 125.949219 172.523438 126.511719 L 171.398438 125.949219 L 178.144531 110.203125 C 181.519531 100.648438 183.207031 92.773438 182.644531 86.59375 L 184.894531 86.59375 L 184.332031 100.085938 L 183.207031 113.015625 L 183.769531 113.015625 L 184.894531 108.515625 C 185.457031 106.265625 186.019531 104.582031 187.707031 104.019531 C 193.894531 98.960938 198.953125 92.773438 202.328125 84.339844 C 205.140625 78.152344 206.820313 70.28125 208.507813 60.726563 L 214.132813 57.917969 L 214.132813 58.476563 C 213.570313 69.160156 211.320313 78.714844 207.949219 88.273438 C 202.886719 100.648438 196.144531 108.515625 187.707031 111.328125 L 187.707031 111.890625 L 188.269531 112.453125 L 201.765625 113.582031 C 206.257813 115.265625 209.632813 117.515625 212.445313 120.890625 C 214.132813 122.574219 215.257813 126.511719 215.824219 132.132813 C 215.824219 137.761719 214.695313 142.820313 211.882813 146.753906 C 206.820313 152.9375 200.078125 159.683594 190.515625 165.875 L 181.519531 171.492188 "/>
<path style=" stroke:none;fill-rule:evenodd;fill:rgb(97.299194%,75.299072%,74.899292%);fill-opacity:1;" d="M 135.414063 199.605469 C 139.347656 199.046875 142.164063 197.359375 144.40625 194.550781 L 147.785156 190.054688 L 151.160156 184.988281 L 159.59375 184.425781 L 161.84375 184.425781 L 158.464844 187.238281 L 151.160156 195.105469 L 143.28125 202.984375 C 137.101563 208.605469 130.914063 210.289063 124.734375 208.605469 C 119.671875 206.917969 115.738281 202.421875 112.359375 195.671875 L 107.863281 187.800781 L 102.800781 179.929688 L 103.363281 182.738281 L 105.050781 184.988281 L 105.613281 187.800781 L 106.175781 190.054688 C 98.300781 186.675781 92.117188 183.300781 87.054688 179.929688 C 80.871094 174.867188 75.8125 169.246094 73 162.496094 C 71.878906 158.558594 71.878906 154.625 73 150.128906 C 74.125 146.191406 76.375 142.820313 79.183594 140.003906 C 84.246094 134.945313 91.558594 133.261719 101.113281 133.824219 L 112.921875 135.507813 L 124.164063 137.761719 L 133.164063 137.195313 L 132.039063 139.441406 L 130.351563 141.695313 L 131.476563 142.257813 C 134.289063 136.632813 138.789063 132.132813 144.40625 129.320313 C 150.035156 125.949219 155.65625 124.824219 161.84375 125.949219 C 165.214844 125.949219 168.589844 127.074219 171.398438 128.761719 C 174.214844 130.445313 177.027344 132.132813 178.710938 134.945313 L 180.960938 138.324219 C 182.644531 141.132813 182.644531 145.066406 181.519531 151.253906 C 180.960938 156.3125 178.710938 160.246094 175.902344 164.1875 C 174.214844 167.558594 171.398438 170.367188 167.464844 172.058594 L 156.21875 175.433594 C 151.160156 174.867188 146.660156 173.746094 142.722656 170.933594 C 138.222656 168.117188 134.855469 164.746094 133.164063 160.246094 L 131.476563 154.0625 L 130.351563 154.625 L 130.351563 157.433594 L 120.796875 158.558594 C 116.855469 157.996094 114.050781 156.875 111.234375 155.1875 L 113.484375 152.9375 L 116.855469 151.816406 L 117.421875 151.253906 L 110.675781 151.816406 C 109.550781 152.378906 107.863281 154.0625 105.613281 155.75 L 100.554688 160.246094 C 98.867188 161.371094 96.621094 161.9375 94.929688 161.9375 L 94.929688 163.058594 L 99.429688 161.9375 L 103.363281 160.246094 L 108.988281 170.367188 L 112.921875 180.492188 L 117.980469 190.054688 C 119.671875 193.988281 122.480469 196.796875 125.292969 199.046875 "/>
<path style=" stroke:none;fill-rule:evenodd;fill:rgb(97.299194%,75.299072%,74.899292%);fill-opacity:1;" d="M 186.023438 102.332031 C 188.269531 88.273438 187.144531 75.910156 182.089844 65.222656 L 193.328125 64.097656 L 204.015625 62.414063 L 205.699219 61.847656 L 201.199219 82.09375 L 195.574219 92.773438 C 192.765625 96.710938 189.390625 100.089844 186.023438 102.332031 "/>
<path style=" stroke:none;fill-rule:evenodd;fill:rgb(65.899658%,59.999084%,59.199524%);fill-opacity:1;" d="M 178.144531 62.976563 L 177.027344 62.414063 L 174.773438 61.847656 L 175.902344 61.289063 L 177.027344 60.726563 "/>
<path style=" stroke:none;fill-rule:evenodd;fill:rgb(0%,0%,0%);fill-opacity:1;" d="M 169.714844 70.847656 C 168.03125 71.410156 166.335938 71.410156 164.652344 70.847656 L 167.464844 68.597656 L 169.714844 65.785156 C 171.398438 63.539063 173.652344 62.976563 175.902344 63.539063 L 178.710938 65.785156 L 179.835938 69.160156 C 177.027344 66.910156 174.773438 66.347656 173.085938 68.035156 "/>
<path style=" stroke:none;fill-rule:evenodd;fill:rgb(65.899658%,59.999084%,59.199524%);fill-opacity:1;" d="M 179.273438 84.339844 C 177.585938 83.78125 175.902344 83.214844 173.085938 83.214844 L 166.335938 83.78125 C 169.152344 79.28125 171.398438 77.03125 174.214844 77.597656 C 177.027344 78.152344 178.710938 80.402344 179.273438 84.339844 "/>
<path style=" stroke:none;fill-rule:evenodd;fill:rgb(100%,100%,100%);fill-opacity:1;" d="M 164.652344 124.265625 L 160.71875 107.953125 L 162.402344 96.148438 L 165.214844 85.46875 L 173.089844 84.902344 C 175.902344 84.339844 178.710938 84.902344 180.394531 86.59375 C 179.835938 93.335938 179.273438 100.089844 177.585938 106.265625 L 169.714844 125.386719 "/>
<path style=" stroke:none;fill-rule:evenodd;fill:rgb(0%,0%,0%);fill-opacity:1;" d="M 106.738281 82.09375 L 109.550781 82.652344 L 105.617188 86.03125 "/>
<path style=" stroke:none;fill-rule:evenodd;fill:rgb(65.899658%,59.999084%,59.199524%);fill-opacity:1;" d="M 114.609375 95.585938 C 116.292969 90.527344 119.105469 87.710938 121.921875 87.148438 C 124.164063 86.59375 126.414063 87.710938 128.667969 90.527344 C 126.414063 90.527344 124.164063 91.089844 121.359375 92.210938 "/>
<path style=" stroke:none;fill-rule:evenodd;fill:rgb(100%,100%,100%);fill-opacity:1;" d="M 133.164063 134.945313 L 128.105469 136.074219 L 123.046875 135.507813 L 116.292969 119.203125 C 114.609375 111.328125 113.484375 104.585938 114.050781 99.523438 C 119.105469 95.023438 124.734375 92.773438 130.351563 92.210938 L 132.601563 97.835938 L 133.164063 100.648438 L 134.285156 107.953125 C 135.414063 116.390625 134.851563 125.386719 133.164063 134.945313 "/>
<path style=" stroke:none;fill-rule:evenodd;fill:rgb(97.299194%,75.299072%,74.899292%);fill-opacity:1;" d="M 178.144531 165.875 C 182.085938 161.9375 183.769531 156.3125 184.332031 148.4375 L 192.765625 146.753906 L 188.832031 146.753906 C 186.023438 147.316406 184.894531 146.191406 184.332031 144.503906 L 184.332031 141.695313 L 183.207031 138.878906 C 181.519531 134.382813 178.710938 130.445313 174.773438 127.636719 L 180.960938 124.824219 C 184.332031 123.140625 186.578125 122.015625 187.707031 121.453125 C 193.328125 119.203125 198.386719 119.765625 202.328125 122.578125 C 204.015625 125.386719 205.140625 129.320313 205.699219 133.261719 C 206.257813 137.195313 205.140625 140.566406 203.445313 143.9375 C 197.265625 155.753906 186.023438 166.4375 169.714844 175.996094 L 169.714844 173.746094 "/>
<path style=" stroke:none;fill-rule:evenodd;fill:rgb(0%,0%,0%);fill-opacity:1;" d="M 150.035156 140.566406 C 154.53125 132.695313 159.59375 129.320313 164.652344 129.882813 C 167.464844 129.882813 169.714844 131.007813 171.964844 133.261719 L 176.457031 140.003906 C 177.585938 143.9375 177.585938 147.878906 176.457031 152.9375 L 171.398438 164.746094 L 168.585938 168.117188 L 164.652344 169.808594 C 161.277344 170.367188 157.90625 168.117188 154.53125 164.1875 C 152.277344 160.8125 150.597656 156.875 149.472656 152.9375 C 148.910156 148.4375 148.910156 144.503906 150.035156 140.566406 "/>
<path style=" stroke:none;fill-rule:evenodd;fill:rgb(0%,0%,0%);fill-opacity:1;" d="M 154.53125 136.632813 L 159.03125 132.695313 C 160.71875 131.570313 162.402344 131.007813 164.652344 131.007813 C 167.460938 131.570313 170.273438 133.261719 173.648438 137.195313 C 174.773438 138.878906 175.332031 141.695313 175.902344 145.628906 L 174.214844 155.1875 C 170.273438 164.746094 166.902344 169.246094 164.089844 168.679688 C 159.59375 168.117188 155.65625 164.746094 152.847656 158.558594 C 151.160156 155.1875 150.597656 151.253906 150.597656 147.316406 C 151.160156 142.820313 152.277344 139.441406 154.53125 136.632813 "/>
<path style=" stroke:none;fill-rule:evenodd;fill:rgb(0%,0%,0%);fill-opacity:1;" d="M 159.59375 136.070313 L 161.84375 136.070313 L 164.09375 137.195313 C 164.652344 137.761719 165.214844 139.441406 164.652344 141.695313 C 162.96875 143.9375 161.277344 145.066406 159.59375 145.066406 L 157.34375 143.9375 C 156.78125 143.378906 156.21875 142.820313 156.21875 141.695313 C 156.21875 138.878906 157.34375 137.195313 159.59375 136.070313 "/>
<path style=" stroke:none;fill-rule:evenodd;fill:rgb(100%,100%,100%);fill-opacity:1;" d="M 162.96875 137.761719 C 163.527344 138.324219 164.089844 139.441406 163.527344 140.566406 L 162.96875 142.820313 L 160.71875 143.9375 C 159.03125 143.378906 157.910156 142.820313 157.34375 141.132813 C 157.910156 138.878906 158.464844 137.761719 160.15625 137.195313 C 161.277344 136.632813 162.402344 137.195313 162.96875 137.761719 "/>
<path style=" stroke:none;fill-rule:evenodd;fill:rgb(0%,0%,0%);fill-opacity:1;" d="M 144.40625 191.734375 C 142.164063 186.675781 139.347656 183.863281 135.976563 183.300781 C 134.289063 183.863281 132.601563 184.425781 130.914063 186.113281 C 128.105469 184.425781 125.859375 183.863281 124.164063 184.988281 L 121.359375 186.113281 L 119.105469 188.363281 L 112.359375 173.746094 L 105.050781 159.683594 L 109.550781 155.1875 C 112.359375 157.996094 115.738281 159.683594 119.671875 160.246094 L 130.914063 159.683594 C 131.476563 163.058594 133.730469 166.4375 136.539063 169.246094 L 146.097656 175.433594 L 147.21875 179.929688 C 147.785156 181.613281 148.34375 183.300781 148.910156 183.863281 C 148.34375 186.113281 147.21875 188.925781 144.40625 191.734375 "/>
<path style=" stroke:none;fill-rule:evenodd;fill:rgb(100%,100%,100%);fill-opacity:1;" d="M 186.023438 173.746094 L 185.457031 174.308594 L 184.894531 174.308594 L 185.457031 174.308594 Z M 186.023438 173.746094 "/>
<path style=" stroke:none;fill-rule:evenodd;fill:rgb(100%,100%,100%);fill-opacity:1;" d="M 161.84375 176.550781 L 164.652344 175.996094 L 167.464844 175.433594 L 166.335938 178.804688 L 164.09375 181.613281 L 162.96875 181.613281 L 149.472656 182.175781 L 148.910156 177.117188 L 153.972656 177.117188 L 159.03125 177.679688 L 159.59375 180.492188 C 159.03125 178.242188 159.59375 177.117188 161.84375 176.550781 "/>
<path style=" stroke:none;fill-rule:evenodd;fill:rgb(93.299866%,14.099121%,22.698975%);fill-opacity:1;" d="M 133.164063 186.113281 L 135.414063 184.988281 C 136.539063 184.988281 137.664063 185.550781 138.222656 186.113281 L 141.035156 187.800781 L 142.722656 190.609375 L 143.28125 193.421875 C 140.472656 195.671875 138.222656 196.792969 135.414063 197.359375 L 125.859375 196.230469 C 123.046875 194.550781 121.359375 192.300781 119.671875 189.488281 L 123.046875 186.675781 L 128.105469 185.550781 L 131.476563 188.925781 L 134.285156 193.421875 L 133.730469 190.054688 L 131.476563 187.238281 "/>
<path style=" stroke:none;fill-rule:evenodd;fill:rgb(0%,0%,0%);fill-opacity:1;" d="M 129.226563 120.890625 L 127.542969 115.824219 C 125.859375 114.144531 124.164063 113.582031 121.355469 113.019531 C 118.546875 113.019531 116.292969 114.707031 114.609375 118.078125 L 123.046875 136.632813 C 128.105469 136.632813 130.351563 131.574219 129.226563 120.890625 "/>
<path style=" stroke:none;fill-rule:evenodd;fill:rgb(100%,100%,100%);fill-opacity:1;" d="M 121.359375 123.140625 C 119.105469 122.578125 118.546875 121.453125 119.671875 119.203125 L 120.796875 117.515625 L 122.480469 116.953125 L 124.164063 118.074219 L 124.734375 120.324219 C 124.164063 122.578125 123.046875 123.703125 121.359375 123.140625 "/>
<path style=" stroke:none;fill-rule:evenodd;fill:rgb(0%,0%,0%);fill-opacity:1;" d="M 171.964844 107.394531 L 169.714844 104.019531 L 167.464844 102.894531 C 163.527344 101.769531 160.71875 102.894531 159.59375 105.710938 L 165.214844 125.386719 L 165.777344 125.386719 L 168.03125 123.140625 C 170.273438 120.324219 171.964844 116.953125 172.523438 114.144531 "/>
<path style=" stroke:none;fill-rule:evenodd;fill:rgb(100%,100%,100%);fill-opacity:1;" d="M 164.652344 114.144531 L 162.96875 113.582031 L 162.402344 112.453125 C 161.84375 110.203125 162.402344 108.515625 164.089844 107.953125 C 165.777344 108.515625 166.902344 109.644531 166.335938 111.328125 L 165.777344 113.015625 "/>
<path style=" stroke:none;fill-rule:evenodd;fill:rgb(65.899658%,59.999084%,59.199524%);fill-opacity:1;" d="M 209.632813 44.980469 L 208.507813 35.980469 L 206.824219 26.421875 C 204.570313 19.117188 200.636719 15.179688 195.574219 14.054688 C 193.894531 13.492188 191.640625 14.054688 188.832031 15.179688 C 180.960938 23.613281 175.902344 34.300781 174.214844 47.230469 L 162.96875 29.238281 C 164.652344 23.613281 166.902344 18.554688 170.839844 13.492188 C 174.773438 8.433594 178.710938 5.0625 183.769531 2.246094 L 197.265625 3.371094 C 202.328125 5.0625 205.699219 8.433594 207.949219 12.929688 L 210.199219 18.554688 L 212.445313 24.738281 L 213.007813 28.675781 L 214.132813 44.980469 "/>
<path style=" stroke:none;fill-rule:evenodd;fill:rgb(97.299194%,75.299072%,74.899292%);fill-opacity:1;" d="M 177.027344 47.230469 L 181.519531 31.484375 C 183.207031 26.421875 186.023438 21.925781 188.832031 17.988281 L 192.765625 15.742188 L 194.449219 15.179688 L 197.828125 16.304688 L 201.765625 19.679688 L 204.015625 25.867188 L 206.257813 34.863281 L 206.257813 44.980469 "/>
<path style=" stroke:none;fill-rule:evenodd;fill:rgb(48.199463%,16.099548%,53.69873%);fill-opacity:1;" d="M 85.9375 72.535156 L 81.996094 64.660156 L 78.625 56.789063 C 78.058594 51.164063 79.183594 44.421875 80.871094 37.109375 L 81.996094 34.300781 C 84.246094 30.363281 87.625 26.421875 91.558594 22.488281 L 102.800781 11.808594 L 124.164063 10.683594 C 131.476563 10.683594 137.664063 11.808594 143.851563 14.054688 L 147.21875 16.304688 C 151.722656 20.242188 156.21875 25.304688 160.71875 31.488281 C 164.652344 37.109375 168.585938 42.734375 171.398438 48.917969 C 164.089844 50.039063 155.65625 51.726563 147.21875 54.539063 L 145.535156 55.101563 L 143.28125 55.664063 L 139.917969 56.789063 L 112.359375 66.347656 L 88.179688 73.09375 "/>
<path style=" stroke:none;fill-rule:evenodd;fill:rgb(47.499084%,71.398926%,23.899841%);fill-opacity:1;" d="M 189.390625 47.796875 L 207.949219 46.667969 C 193.894531 48.917969 180.960938 53.976563 170.273438 61.851563 L 161.277344 66.910156 L 148.910156 73.09375 L 139.347656 77.03125 C 132.039063 80.402344 124.164063 81.53125 114.609375 80.96875 C 107.300781 80.402344 98.867188 78.152344 89.308594 74.78125 L 93.246094 74.21875 L 112.921875 68.597656 L 131.476563 61.289063 C 147.785156 55.664063 160.71875 51.726563 170.839844 50.039063 L 179.835938 48.917969 "/>
<path style=" stroke:none;fill-rule:evenodd;fill:rgb(97.299194%,75.299072%,74.899292%);fill-opacity:1;" d="M 56.132813 113.582031 L 44.886719 111.890625 L 34.765625 105.148438 C 26.894531 96.710938 21.832031 86.59375 19.023438 74.21875 C 16.214844 62.414063 17.339844 50.601563 21.273438 39.921875 L 24.082031 35.425781 L 26.894531 32.046875 C 29.144531 30.363281 32.515625 30.363281 37.015625 32.046875 L 44.328125 38.234375 L 49.390625 46.667969 L 51.632813 50.601563 L 55.007813 61.847656 L 58.941406 72.535156 C 61.753906 80.96875 65.128906 88.273438 67.9375 93.898438 L 61.753906 94.460938 L 55.007813 92.773438 L 52.195313 91.652344 L 49.390625 91.652344 L 48.261719 98.960938 L 50.511719 105.710938 L 52.757813 109.644531 "/>
<path style=" stroke:none;fill-rule:evenodd;fill:rgb(48.199463%,16.099548%,53.69873%);fill-opacity:1;" d="M 197.828125 51.726563 L 216.941406 47.796875 L 218.066406 48.355469 L 218.066406 49.484375 L 213.007813 54.539063 L 207.386719 58.476563 L 192.765625 61.851563 L 180.960938 62.414063 L 179.273438 59.035156 C 184.332031 56.226563 190.515625 53.417969 197.828125 51.726563 "/>
<path style=" stroke:none;fill-rule:evenodd;fill:rgb(0%,0%,0%);fill-opacity:1;" d="M 130.351563 50.601563 C 125.292969 48.917969 121.921875 45.539063 119.671875 40.480469 C 118.546875 34.300781 120.230469 29.238281 124.164063 25.304688 C 125.859375 23.613281 127.542969 23.050781 130.351563 22.488281 L 137.664063 22.488281 L 139.917969 23.613281 L 141.035156 25.304688 L 138.222656 31.484375 L 134.851563 30.921875 L 132.039063 32.609375 L 131.476563 34.863281 L 131.476563 36.546875 C 133.164063 38.234375 134.289063 39.359375 135.976563 38.796875 C 137.664063 37.109375 139.347656 36.546875 141.035156 37.671875 L 144.972656 42.171875 C 145.535156 43.296875 145.535156 44.421875 144.40625 45.539063 C 140.472656 49.480469 135.414063 51.164063 130.351563 50.601563 "/>
<path style=" stroke:none;fill-rule:evenodd;fill:rgb(97.299194%,85.499573%,4.699707%);fill-opacity:1;" d="M 131.476563 48.917969 C 126.980469 48.355469 123.609375 45.539063 121.921875 41.609375 C 121.359375 39.921875 120.796875 37.671875 120.796875 35.425781 C 120.796875 32.609375 121.359375 29.800781 123.046875 28.109375 C 124.734375 25.867188 126.417969 24.738281 129.226563 24.175781 L 134.289063 23.613281 L 139.347656 25.304688 L 137.664063 29.800781 L 134.289063 29.800781 L 132.039063 30.921875 L 129.796875 33.738281 L 130.351563 37.109375 L 134.289063 40.480469 C 135.976563 41.046875 137.101563 39.921875 138.789063 38.234375 L 142.164063 41.609375 L 143.285156 42.734375 L 143.851563 43.859375 C 141.035156 47.796875 136.539063 49.480469 131.476563 48.917969 "/>
<path style=" stroke:none;fill-rule:evenodd;fill:rgb(0%,0%,0%);fill-opacity:1;" d="M 111.804688 236.722656 C 112.359375 229.972656 115.171875 224.34375 119.671875 220.410156 C 122.480469 218.167969 125.859375 216.480469 129.796875 215.351563 L 140.472656 215.351563 L 148.910156 218.722656 C 152.277344 220.410156 153.972656 221.535156 153.972656 222.101563 L 144.40625 237.277344 L 135.414063 236.15625 C 133.730469 236.722656 133.164063 237.839844 133.164063 239.53125 C 132.601563 241.214844 133.730469 242.902344 135.414063 244.59375 L 140.472656 244.59375 L 142.722656 243.464844 L 145.535156 242.902344 C 146.09375 245.71875 148.910156 249.652344 152.847656 254.714844 L 153.972656 255.835938 L 153.40625 256.960938 C 149.472656 260.894531 144.972656 263.144531 139.347656 263.707031 C 133.730469 264.269531 128.667969 263.707031 124.164063 262.019531 C 119.671875 259.210938 116.296875 255.835938 114.050781 251.335938 C 112.359375 246.835938 111.234375 241.777344 111.804688 236.722656 "/>
<path style=" stroke:none;fill-rule:evenodd;fill:rgb(47.499084%,71.398926%,23.899841%);fill-opacity:1;" d="M 114.609375 232.222656 C 116.292969 227.160156 118.546875 223.785156 122.480469 220.972656 C 125.859375 218.167969 129.796875 217.039063 134.289063 216.476563 C 138.222656 216.476563 142.722656 217.601563 147.21875 219.847656 L 152.277344 222.660156 L 147.785156 228.84375 L 143.851563 235.03125 L 138.222656 233.90625 C 135.976563 233.90625 134.289063 234.46875 132.601563 236.15625 C 130.914063 237.839844 130.914063 240.652344 132.039063 243.464844 L 135.976563 246.28125 L 140.472656 246.28125 L 144.40625 244.59375 L 147.785156 250.214844 L 152.277344 256.394531 C 145.535156 262.019531 138.222656 263.707031 129.796875 261.457031 C 122.480469 259.773438 117.421875 255.277344 114.609375 246.835938 C 113.484375 241.777344 113.484375 237.277344 114.609375 232.222656 "/>
<path style=" stroke:none;fill-rule:evenodd;fill:rgb(0%,0%,0%);fill-opacity:1;" d="M 116.292969 241.21875 C 116.292969 237.839844 117.421875 233.90625 119.671875 228.84375 C 120.796875 226.035156 123.046875 223.785156 125.859375 222.101563 C 128.667969 220.410156 132.039063 219.285156 134.851563 219.285156 C 141.035156 219.285156 145.535156 220.972656 148.910156 223.785156 L 147.785156 224.910156 L 142.722656 233.34375 L 137.664063 232.78125 L 133.164063 233.34375 L 129.796875 237.277344 C 129.226563 238.964844 129.226563 240.652344 129.796875 242.34375 C 129.796875 244.027344 130.351563 245.71875 131.476563 246.28125 L 134.289063 247.964844 C 137.101563 248.523438 140.472656 247.964844 143.28125 246.28125 L 149.472656 256.394531 C 146.660156 258.648438 143.28125 260.335938 139.347656 260.894531 C 135.414063 261.457031 130.914063 260.335938 126.980469 258.648438 L 119.671875 253.023438 C 117.421875 249.085938 116.292969 245.152344 116.292969 241.21875 "/>
<path style=" stroke:none;fill-rule:evenodd;fill:rgb(97.299194%,85.499573%,4.699707%);fill-opacity:1;" d="M 133.164063 259.773438 C 125.859375 258.085938 121.359375 254.714844 119.671875 249.652344 C 116.292969 242.34375 116.855469 235.03125 121.921875 227.160156 C 124.734375 223.21875 129.226563 220.972656 134.285156 220.410156 C 139.347656 219.847656 143.851563 220.972656 147.785156 224.34375 L 142.722656 232.222656 L 139.347656 231.660156 L 133.730469 231.660156 L 129.226563 235.59375 C 128.105469 237.839844 128.105469 240.652344 128.667969 244.59375 C 129.792969 247.964844 132.601563 249.652344 136.539063 249.085938 L 142.722656 247.398438 L 147.785156 255.835938 C 143.28125 259.210938 138.222656 260.335938 133.164063 259.773438 "/>
<path style=" stroke:none;fill-rule:evenodd;fill:rgb(0%,0%,0%);fill-opacity:1;" d="M 262.488281 261.457031 L 260.234375 261.457031 L 260.234375 267.644531 L 257.429688 267.644531 L 257.429688 261.457031 L 255.746094 261.457031 L 255.746094 259.773438 L 262.488281 259.773438 Z M 271.484375 262.019531 L 269.234375 267.644531 L 267.550781 267.644531 L 265.863281 262.019531 L 265.863281 267.644531 L 264.175781 267.644531 L 264.175781 259.773438 L 266.988281 259.773438 L 268.675781 264.273438 L 270.359375 259.773438 L 273.167969 259.773438 L 273.167969 267.644531 L 271.484375 267.644531 "/>
</g>
</svg>
