<svg width="230" height="137" viewBox="0 0 230 137" fill="none" xmlns="http://www.w3.org/2000/svg">
<g clip-path="url(#clip0_581_13852)">
<path d="M34.9656 90.5589C18.039 92.6591 7.19878 84.7394 5.22478 68.8298C3.999 58.9506 8.03367 52.6513 13.5966 49.7848C11.2399 45.6682 10.4773 41.1339 11.5668 36.7772C12.4482 33.2588 15.9673 24.891 29.5891 23.2009C46.1873 21.1414 51.0025 31.1002 52.3034 35.4785L52.3782 35.7306L52.4375 35.989C53.6947 41.3769 52.69 46.063 51.8831 49.8291C51.4684 51.7583 51.0779 53.5821 51.2099 54.6462C51.3899 56.0966 52.0104 57.6185 52.7291 59.3787C54.117 62.7811 56.02 67.4441 55.1124 73.3859C53.644 82.7672 46.1148 89.1755 34.9656 90.5589Z" fill="#E43D4C"/>
<path d="M43.808 37.9986C45.2786 44.3077 41.7161 50.0951 42.4162 55.7374C43.1908 61.9802 47.2798 65.9798 46.3523 72.0527C45.5845 76.9598 41.7042 80.8004 33.8753 81.7717C21.0784 83.3595 15.3255 78.2702 14.0188 67.7389C13.3656 62.4743 14.6688 57.577 20.1644 56.8951C23.7778 56.4468 24.4422 59.3422 27.6793 58.9406C30.3142 58.6137 31.3631 54.1312 26.1826 50.5719C17.138 44.2093 17.3555 33.6413 30.6797 31.9881C38.2831 31.0447 42.3643 33.137 43.808 37.9986Z" fill="#E43D4C"/>
<path d="M68.5328 86.3177C56.4616 87.8155 47.4208 82.4894 44.3488 72.0681L44.2469 71.6951C43.0916 67.0308 43.5892 63.2399 43.9895 60.195C44.2286 58.379 44.4168 56.9441 44.2391 55.5112C44.0953 54.3528 43.3035 52.6451 42.464 50.8345C40.8702 47.3966 38.8874 43.1183 38.7905 37.6822L38.7848 37.4173L38.7957 37.1545C39.1931 27.6532 45.8548 21.1827 56.6164 19.8475C62.1405 19.162 66.4736 19.8595 69.7828 21.4226C72.6309 18.9191 76.426 17.2372 80.9131 16.6805C96.0932 14.797 100.81 24.8594 102.134 29.2719L102.228 29.613C103.521 34.648 102.201 39.1554 101.237 42.4465C100.706 44.2617 100.204 45.9751 100.334 47.0243C100.491 48.2879 101.505 49.9854 102.678 51.9506C104.726 55.378 107.529 60.0729 107.645 66.2996L107.65 66.6366L107.632 66.9766C106.871 80.08 97.3486 82.6665 93.2898 83.1702C89.1214 83.6873 85.3751 82.8365 82.4501 80.9164C79.2764 83.5473 74.7418 85.5478 68.5327 86.3182L68.5328 86.3177Z" fill="#E43D4C"/>
<path d="M52.8484 69.5649C51.4713 64.0089 53.7327 60.0623 53.0327 54.4201C52.3326 48.7778 47.7654 43.999 47.6496 37.5219C47.8613 32.4548 51.3835 29.4192 57.7063 28.6346C64.5572 27.7846 69.0436 29.4434 69.7343 35.0103C70.6209 42.1563 63.9835 45.9577 64.5249 50.3212C64.9729 53.9319 67.4938 54.5361 71.4839 54.041C77.2795 53.3219 79.8235 49.7975 79.4783 47.015C78.9555 42.8016 73.6137 41.0203 72.9792 35.9059C72.3353 30.7164 75.152 26.3175 82.0032 25.4674C88.7778 24.6268 92.2098 27.0285 93.6451 31.8149C94.9756 36.9955 90.8024 42.1728 91.5397 48.1152C92.3702 54.8086 98.6506 59.2247 98.7847 66.464C98.5167 71.0783 96.7165 73.822 92.1993 74.3825C88.06 74.8961 85.4745 73.1562 84.9986 69.3204C84.5971 66.0852 86.3309 62.8139 86.0416 60.482C85.7336 57.9998 84.5781 57.3045 82.3945 57.5754C80.4377 57.8182 79.0056 59.2181 79.1069 61.8782C79.2742 63.8418 79.8647 65.5265 79.7783 67.9052C79.791 72.9444 75.2712 76.5592 67.4424 77.5305C59.1627 78.5578 54.565 75.386 52.8487 69.5649L52.8484 69.5649Z" fill="#E43D4C"/>
<path d="M115.087 80.7724C98.9953 82.769 94.3689 72.5057 93.1266 68.0004L93.0162 67.5588C91.4912 60.6618 93.5056 56.0227 94.8378 52.9513C95.7305 50.8952 95.9566 50.303 95.7903 48.9621C95.6609 47.9195 95.4074 47.5283 94.0432 45.7915C91.9596 43.1419 88.812 39.1388 88.6021 31.9827L88.5989 31.6586C88.6729 21.7209 95.4565 14.9521 106.746 13.5513C110.963 13.0281 125.021 12.4187 128.891 26.5442L128.96 26.797L129.015 27.0539C130.484 34.0078 128.405 38.6333 127.03 41.6946C126.122 43.7155 125.971 44.159 126.1 45.2016C126.267 46.5425 126.631 47.0614 127.999 48.837C130.041 51.4874 133.128 55.4958 133.336 62.5562L133.339 62.8978C133.204 77.3985 119.335 80.2453 115.087 80.7724L115.087 80.7724Z" fill="#E43D4C"/>
<path d="M120.344 28.8834C122.011 36.7735 116.373 38.7713 117.306 46.2927C118.286 54.1895 124.242 54.751 124.478 62.8164C124.425 68.5521 120.395 71.191 113.996 71.985C107.673 72.7695 103.196 71.1858 101.669 65.6464C99.9262 57.768 105.564 55.768 104.584 47.8712C103.651 40.3498 97.6956 39.7903 97.4598 31.7228C97.503 25.9123 101.514 23.123 107.836 22.3384C114.311 21.5352 118.806 23.2689 120.344 28.8834Z" fill="#E43D4C"/>
<path d="M149.643 76.5611C122.908 79.8783 117.216 62.06 115.244 46.1674C113.482 31.9656 114.298 12.6906 141.613 9.3015C148.14 8.57009 167.683 6.38483 170.256 27.1213C170.992 33.0553 169.92 37.497 167.888 40.679C170.775 43.2965 172.749 47.2121 173.345 52.0176C175.642 70.5296 159.859 75.2935 150.246 76.4882L149.643 76.5609L149.643 76.5611Z" fill="#E43D4C"/>
<path d="M142.703 18.0886C155.368 16.6717 160.379 19.4853 161.462 28.2123C162.097 33.3267 161.048 37.8092 156.23 38.4069C151.186 39.0328 148.018 36.9055 143.201 37.5032C140.34 37.8582 137.459 39.8973 137.954 43.8834C138.43 47.7192 141.956 49.0396 145.117 48.6474C150.839 47.9375 153.936 46.4074 157.474 45.9684C161.614 45.4547 164 48.6722 164.551 53.1087C165.68 62.2113 160.464 66.3722 148.787 67.7447C131.482 69.9681 126.174 62.3012 124.037 45.0763C122.03 28.9028 125.388 20.2369 142.702 18.0887L142.703 18.0886Z" fill="#E43D4C"/>
<path d="M191.849 71.0172C181.615 72.2869 160.322 74.9289 158 56.2133C157.383 51.247 158.618 46.8918 161.302 43.6507C159.616 40.7252 159.151 37.7203 158.915 35.876C158.718 35.539 158.306 34.9606 157.992 34.5179C156.438 32.332 154.09 29.0269 153.653 24.23L153.621 23.8724L153.618 23.5135C153.582 19.8342 154.784 7.66718 171.728 5.56484C176.525 4.96961 180.835 5.57405 184.31 7.22992C187.207 4.69002 191.126 3.00572 195.723 2.43525C210.422 0.611447 215.375 9.53591 217.019 15.0174L217.082 15.2382C218.43 20.1967 216.986 24.5603 215.93 27.7455C215.45 29.197 214.904 30.842 214.995 31.5755C215.314 34.1521 216.006 35.8482 216.88 37.9941C218.137 41.0773 219.7 44.9156 219.529 50.4851L219.516 50.9159L219.46 51.3433C218.489 58.8765 212.91 68.4042 191.849 71.0173L191.849 71.0172Z" fill="#E43D4C"/>
<path d="M166.793 55.122C166.215 50.4582 168.57 47.2644 173.839 46.6106C179.41 45.9194 184.113 47.475 188.78 46.896C191.867 46.5129 194.324 45.3672 193.885 41.8319C193.623 39.7252 191.949 39.1705 190.218 39.3853C186.679 39.8243 183.685 42.1801 177.438 42.9553C172.695 43.5438 170.391 42.2263 169.133 39.481C168.184 37.9934 167.894 36.2737 167.661 34.3921C167.166 30.406 162.897 28.0343 162.478 23.4267C162.427 18.0852 166.119 15.1831 172.818 14.3518C185.163 12.8201 186.556 22.1949 180.981 27.7749C177.929 30.9048 178.818 35.6042 185.367 34.7916C196.734 33.3812 194.961 28.3319 190.928 25.3949C185.992 21.3477 186.123 12.5484 196.813 11.2221C203.889 10.3442 207.095 12.7739 208.53 17.5602C209.796 22.2151 205.51 27.0993 206.2 32.6664C207.199 40.7135 210.884 43.3124 210.671 50.2136C209.93 55.9561 204.309 60.5485 190.758 62.2298C172.918 64.4433 167.643 61.9676 166.793 55.122Z" fill="#E43D4C"/>
<path d="M40.0544 133.49C33.1606 134.345 14.848 136.617 12.8684 120.663C12.4175 117.028 13.154 113.731 14.8325 111.074C14.1626 109.532 13.8278 108.014 13.6113 106.555C13.5099 106.411 13.4028 106.267 13.2992 106.121C12.1013 104.435 10.0974 101.615 9.7225 97.4918L9.68953 97.1343L9.68651 96.7754C9.62383 90.2394 13.5934 82.7566 24.9217 81.351C28.243 80.9389 31.2972 81.2331 33.9209 82.1601C36.1975 80.5575 39.0278 79.4919 42.244 79.0929C55.1183 77.4955 59.1473 86.125 60.2817 89.9095L60.3453 90.1325C61.5115 94.4271 60.2857 98.1299 59.4734 100.579C59.2786 101.17 58.989 102.042 58.9261 102.431C59.1254 103.879 59.539 104.893 60.1033 106.278C61.0453 108.59 62.3365 111.758 62.196 116.3L62.1815 116.729L62.1276 117.156C61.3148 123.458 56.8262 131.409 40.0541 133.49L40.0544 133.49Z" fill="#E43D4C"/>
<path d="M21.6625 119.572C21.2449 116.206 22.9457 113.899 26.7497 113.427C30.7714 112.928 34.1659 114.049 37.5356 113.631C39.7635 113.355 41.5371 112.529 41.2204 109.976C41.0319 108.457 39.8233 108.054 38.5737 108.209C36.0192 108.526 33.8577 110.229 29.347 110.789C25.9231 111.214 24.2604 110.261 23.3518 108.278C22.6672 107.207 22.4579 105.963 22.2897 104.607C21.9325 101.728 18.8505 100.015 18.5479 96.6889C18.511 92.8334 21.1755 90.7384 26.0126 90.1382C34.9253 89.0324 35.9299 95.7999 31.9052 99.8283C29.7023 102.086 30.3444 105.481 35.0724 104.894C43.2781 103.876 41.9986 100.232 39.0869 98.1117C35.5237 95.1904 35.6183 88.8375 43.335 87.88C48.4437 87.2462 50.7583 88.998 51.7941 92.4528C52.7072 95.8139 49.6131 99.3412 50.1116 103.359C50.8327 109.171 53.4938 111.045 53.3391 116.027C52.805 120.173 48.7473 123.489 38.9646 124.702C26.085 126.3 22.2759 124.512 21.6629 119.571L21.6625 119.572Z" fill="#E43D4C"/>
<path d="M69.7266 129.808C57.9343 131.271 51.5982 124.551 49.6008 117.774L49.4992 117.403C48.5521 113.582 48.963 110.464 49.2623 108.185C49.4334 106.886 49.5254 106.116 49.44 105.427C49.3838 104.974 48.7736 103.658 48.3688 102.785C47.1858 100.235 45.5665 96.7415 45.4877 92.2943L45.4823 92.0313L45.4941 91.7662C45.7587 85.4642 49.8437 78.2588 60.5173 76.9345C64.295 76.4658 67.419 76.81 69.9593 77.7016C72.1916 76.111 74.9369 75.0363 78.0576 74.6491C86.9569 73.5449 93.6797 77.5925 96.0398 85.4749L96.1338 85.8116C97.2365 90.1035 96.1735 93.7314 95.3973 96.3829C95.1684 97.165 94.8222 98.3451 94.8303 98.736C94.8975 99.1285 95.6749 100.43 96.1881 101.29C97.8086 104.002 100.027 107.717 100.122 112.866L100.128 113.205L100.109 113.543C99.6523 121.389 94.9765 126.62 87.5997 127.535C84.6293 127.904 81.9019 127.48 79.6012 126.402C77.1207 128.056 73.8744 129.293 69.7265 129.807L69.7266 129.808Z" fill="#E43D4C"/>
<path d="M58.1008 115.27C57.1059 111.259 58.7396 108.41 58.2342 104.336C57.7289 100.264 54.4309 96.8135 54.3475 92.1362C54.5009 88.4792 57.0423 86.2884 61.6079 85.7219C66.5534 85.1083 69.7921 86.3053 70.2907 90.3235C70.9309 95.4829 66.1397 98.2275 66.5304 101.377C66.8539 103.983 68.6738 104.42 71.554 104.062C75.7384 103.543 77.5746 101 77.3252 98.9897C76.948 95.9498 73.0913 94.6639 72.6331 90.9717C72.1681 87.2238 74.2029 84.0503 79.1484 83.4367C84.0392 82.8299 86.517 84.5614 87.5517 88.0163C88.513 91.7571 85.5005 95.4942 86.0328 99.7848C86.6325 104.618 91.1667 107.805 91.2625 113.032C91.0688 116.364 89.7699 118.344 86.5098 118.749C83.5201 119.12 81.6537 117.861 81.3101 115.092C81.0205 112.758 82.2722 110.398 82.0633 108.714C81.841 106.923 81.0056 106.418 79.4298 106.614C78.017 106.789 76.9838 107.8 77.0565 109.721C77.1769 111.139 77.6044 112.354 77.5408 114.072C77.5518 117.71 74.2884 120.32 68.6365 121.021C62.6584 121.763 59.3397 119.473 58.101 115.27L58.1008 115.27Z" fill="#E43D4C"/>
<path d="M130.878 122.332C127.928 122.698 125.271 122.479 122.932 121.68C121.127 122.649 119.014 123.307 116.634 123.603C114.281 123.894 112.082 123.76 110.1 123.248C108.037 124.58 105.513 125.479 102.619 125.838C93.7328 126.941 86.884 122.591 84.7466 114.482C83.4792 109.152 84.9459 105.265 85.8226 102.941C86.406 101.396 86.4776 101.104 86.412 100.532C86.3813 100.312 86.2918 100.125 85.3803 98.8415C83.9354 96.8075 81.5175 93.4045 81.4429 88.0768C81.4876 81.6997 84.5324 73.9546 98.7764 72.1873C102.116 71.7729 106.452 71.5356 110.376 73.0047C113.826 70.6205 118.093 69.7906 121.439 69.3754C132.678 67.9809 139.621 71.6003 142.079 80.1351L142.163 80.4273L142.227 80.7265C143.31 85.781 141.849 89.5804 140.975 91.8498C140.411 93.3139 140.371 93.5214 140.421 93.9183C140.493 94.4996 140.622 94.7473 141.57 96.1196C143.035 98.2404 145.248 101.442 145.43 106.541L145.441 106.864L145.429 107.188C145.118 115.454 139.543 121.256 130.878 122.331L130.878 122.332Z" fill="#E43D4C"/>
<path d="M114.911 88.8125C112.457 83.7147 111.986 79.4709 122.529 78.1628C129.377 77.3132 132.398 78.5373 133.562 82.5839C134.61 87.4705 130.953 89.5798 131.627 95.0096C132.328 100.658 136.396 101.861 136.574 106.858C136.42 110.957 133.974 113.025 129.788 113.544C125.441 114.084 122.984 112.513 122.573 108.761C121.946 104.151 125.506 103.489 125.001 98.9749C124.542 95.723 123.926 94.3117 122.621 94.4735C120.502 94.7364 119.03 98.888 119.55 102.187C119.731 104.537 120.708 106.18 121.059 108.561C121.456 112.206 119.783 114.289 115.543 114.815C111.359 115.334 109.227 113.723 108.776 110.085C108.48 107.697 108.971 105.872 108.681 103.535C108.27 100.223 105.829 96.557 103.763 96.8133C102.459 96.9751 102.206 98.4943 102.611 101.753C103.17 106.26 106.783 106.032 107.356 110.649C107.821 114.395 105.822 116.518 101.528 117.051C97.2904 117.577 94.3566 116.176 93.315 112.225C92.1585 107.35 95.8627 105.183 95.2166 99.5273C94.4881 94.1043 90.373 92.9593 90.3032 87.9513C90.3343 83.7563 92.9653 81.831 99.8668 80.9747C110.411 79.6664 110.936 83.9034 109.857 89.4396C109.057 93.6755 110.813 97.5921 113.422 97.2685C115.922 96.9583 116.721 92.7247 114.911 88.8125Z" fill="#E43D4C"/>
<path d="M176.311 116.695C173.361 117.061 170.704 116.842 168.365 116.043C166.56 117.011 164.446 117.67 162.066 117.965C159.713 118.257 157.514 118.123 155.533 117.611C153.47 118.943 150.946 119.842 148.052 120.201C139.165 121.303 132.317 116.953 130.179 108.845C128.912 103.515 130.379 99.6277 131.254 97.3059C131.838 95.7588 131.909 95.4667 131.844 94.8975C131.813 94.6747 131.723 94.4855 130.813 93.2043C129.368 91.1704 126.95 87.7673 126.875 82.4396C126.92 76.0625 129.965 68.3175 144.209 66.5501C147.549 66.1358 151.885 65.8985 155.809 67.3676C159.258 64.9833 163.525 64.1534 166.871 63.7383C178.111 62.3438 185.054 65.9631 187.511 74.4979L187.596 74.7902L187.66 75.0893C188.743 80.1439 187.282 83.9432 186.408 86.2127C185.844 87.6768 185.804 87.8842 185.853 88.2812C185.925 88.8625 186.054 89.1101 187.003 90.4825C188.467 92.6032 190.681 95.8053 190.863 100.904L190.874 101.227L190.861 101.551C190.551 109.817 184.976 115.619 176.311 116.694L176.311 116.695Z" fill="#E43D4C"/>
<path d="M160.344 83.1754C157.89 78.0775 157.42 73.8338 167.962 72.5257C174.81 71.6761 177.831 72.9001 178.996 76.9467C180.043 81.8334 176.386 83.9427 177.06 89.3725C177.761 95.0211 181.829 96.2241 182.007 101.221C181.853 105.32 179.406 107.388 175.221 107.907C170.874 108.447 168.417 106.876 168.006 103.124C167.379 98.5135 170.939 97.8519 170.434 93.3378C169.975 90.0858 169.359 88.6745 168.055 88.8363C165.935 89.0993 164.463 93.2508 164.983 96.5497C165.164 98.8994 166.141 100.543 166.491 102.924C166.889 106.569 165.216 108.652 160.976 109.178C156.792 109.697 154.661 108.086 154.209 104.448C153.913 102.06 154.404 100.235 154.114 97.8983C153.703 94.586 151.262 90.9199 149.197 91.1761C147.892 91.338 147.639 92.8572 148.044 96.1159C148.603 100.623 152.216 100.395 152.789 105.012C153.254 108.757 151.255 110.881 146.962 111.414C142.724 111.94 139.79 110.539 138.748 106.588C137.592 101.713 141.296 99.5456 140.649 93.8903C139.921 88.4671 135.806 87.3222 135.736 82.3142C135.767 78.1192 138.398 76.1938 145.3 75.3375C155.843 74.0294 156.368 78.2664 155.289 83.8026C154.492 88.0383 156.246 91.955 158.855 91.6313C161.355 91.3211 162.154 87.0875 160.344 83.1754Z" fill="#E43D4C"/>
<path d="M202.439 113.342C195.545 114.197 177.233 116.469 175.253 100.515C174.802 96.8805 175.539 93.5826 177.217 90.9258C176.547 89.3839 176.212 87.8659 175.996 86.4069C175.894 86.2627 175.788 86.119 175.684 85.9729C174.486 84.2873 172.481 81.4669 172.107 77.3417L172.074 76.9841L172.072 76.6271C172.008 70.0912 175.978 62.6083 187.306 61.2029C190.627 60.7908 193.682 61.085 196.306 62.0119C198.582 60.4093 201.413 59.3437 204.629 58.9446C217.502 57.3474 221.531 65.9769 222.666 69.7614L222.729 69.9802C223.896 74.2769 222.67 77.9797 221.858 80.4309C221.663 81.0215 221.374 81.8938 221.311 82.2828C221.511 83.7327 221.924 84.7468 222.488 86.1296C223.43 88.4416 224.72 91.6101 224.58 96.1519L224.567 96.5805L224.511 97.0055C223.701 103.308 219.214 111.26 202.439 113.341L202.439 113.342Z" fill="#E43D4C"/>
<path d="M184.047 99.4236C183.629 96.0576 185.329 93.7511 189.133 93.279C193.155 92.7801 196.55 93.9011 199.919 93.483C202.147 93.2066 203.921 92.3808 203.604 89.8279C203.416 88.3091 202.207 87.9056 200.957 88.0608C198.403 88.3777 196.241 90.0815 191.73 90.6412C188.307 91.0659 186.643 90.1136 185.736 88.1305C185.051 87.0587 184.841 85.8148 184.673 84.459C184.316 81.5801 181.233 79.8669 180.932 76.5409C180.895 72.6854 183.559 70.5904 188.395 69.9904C197.308 68.8845 198.314 75.6519 194.288 79.6805C192.085 81.9382 192.728 85.3331 197.455 84.7465C205.662 83.7282 204.381 80.0837 201.47 77.9638C197.907 75.0426 198.002 68.6896 205.719 67.7321C210.828 67.0982 213.141 68.8502 214.177 72.3049C215.091 75.6659 211.997 79.1932 212.495 83.2114C213.217 89.023 215.877 90.8975 215.722 95.8789C215.189 100.025 211.13 103.341 201.348 104.554C188.468 106.153 184.66 104.364 184.047 99.4233L184.047 99.4236Z" fill="#E43D4C"/>
<path d="M43.8075 37.9985C45.2781 44.3076 41.7156 50.0951 42.4157 55.7373C43.1903 61.9802 47.2793 65.9798 46.3518 72.0526C45.584 76.9598 41.7037 80.8003 33.8749 81.7717C21.0779 83.3595 15.325 78.2701 14.0183 67.7389C13.3651 62.4743 14.6683 57.577 20.1639 56.8951C23.7773 56.4467 24.4418 59.3422 27.6788 58.9405C30.3137 58.6136 31.3626 54.1311 26.1822 50.5718C17.1375 44.2092 17.355 33.6412 30.6792 31.988C38.2827 31.0446 42.3638 33.1369 43.8075 37.9985Z" fill="white"/>
<path d="M52.8484 69.5649C51.4713 64.0089 53.7327 60.0623 53.0327 54.4201C52.3326 48.7778 47.7654 43.999 47.6496 37.5219C47.8613 32.4548 51.3835 29.4192 57.7063 28.6346C64.5572 27.7846 69.0436 29.4434 69.7343 35.0103C70.6209 42.1563 63.9835 45.9577 64.5249 50.3212C64.9729 53.9319 67.4938 54.5361 71.4839 54.041C77.2795 53.3219 79.8235 49.7975 79.4783 47.015C78.9555 42.8016 73.6137 41.0203 72.9792 35.9059C72.3353 30.7164 75.152 26.3175 82.0032 25.4674C88.7778 24.6268 92.2098 27.0285 93.6451 31.8149C94.9756 36.9955 90.8024 42.1728 91.5397 48.1152C92.3702 54.8086 98.6506 59.2247 98.7847 66.464C98.5167 71.0783 96.7165 73.822 92.1993 74.3825C88.06 74.8961 85.4745 73.1562 84.9986 69.3204C84.5971 66.0852 86.3309 62.8139 86.0416 60.482C85.7336 57.9998 84.5781 57.3045 82.3945 57.5754C80.4377 57.8182 79.0056 59.2181 79.1069 61.8782C79.2742 63.8418 79.8647 65.5265 79.7783 67.9052C79.791 72.9444 75.2712 76.5592 67.4424 77.5305C59.1627 78.5578 54.565 75.386 52.8487 69.5649L52.8484 69.5649Z" fill="white"/>
<path d="M120.344 28.8834C122.011 36.7735 116.373 38.7713 117.306 46.2927C118.286 54.1895 124.241 54.751 124.478 62.8164C124.424 68.5521 120.395 71.191 113.996 71.985C107.673 72.7695 103.196 71.1858 101.668 65.6464C99.9257 57.768 105.564 55.768 104.584 47.8712C103.65 40.3498 97.6951 39.7903 97.4593 31.7228C97.5025 25.9123 101.513 23.123 107.836 22.3384C114.31 21.5352 118.806 23.2689 120.344 28.8834Z" fill="white"/>
<path d="M142.703 18.0886C155.368 16.6717 160.379 19.4853 161.462 28.2123C162.097 33.3267 161.048 37.8092 156.23 38.4069C151.186 39.0328 148.018 36.9055 143.201 37.5032C140.34 37.8582 137.459 39.8973 137.954 43.8834C138.43 47.7192 141.956 49.0396 145.117 48.6474C150.839 47.9375 153.936 46.4074 157.474 45.9684C161.614 45.4547 164 48.6722 164.551 53.1087C165.68 62.2113 160.464 66.3722 148.787 67.7447C131.482 69.9681 126.174 62.3012 124.037 45.0763C122.03 28.9028 125.388 20.2369 142.702 18.0887L142.703 18.0886Z" fill="white"/>
<path d="M166.793 55.122C166.215 50.4582 168.57 47.2644 173.839 46.6106C179.41 45.9194 184.113 47.475 188.78 46.896C191.867 46.5129 194.324 45.3672 193.885 41.8319C193.623 39.7252 191.949 39.1705 190.218 39.3853C186.679 39.8243 183.685 42.1801 177.438 42.9553C172.695 43.5438 170.391 42.2263 169.133 39.481C168.184 37.9934 167.894 36.2737 167.661 34.3921C167.166 30.406 162.897 28.0343 162.478 23.4267C162.427 18.0852 166.119 15.1831 172.818 14.3518C185.163 12.8201 186.556 22.1949 180.981 27.7749C177.929 30.9048 178.818 35.6042 185.367 34.7916C196.734 33.3812 194.961 28.3319 190.928 25.3949C185.992 21.3477 186.123 12.5484 196.813 11.2221C203.889 10.3442 207.095 12.7739 208.53 17.5602C209.796 22.2151 205.51 27.0993 206.2 32.6664C207.199 40.7135 210.884 43.3124 210.671 50.2136C209.93 55.9561 204.309 60.5485 190.758 62.2298C172.918 64.4433 167.643 61.9676 166.793 55.122Z" fill="white"/>
<path d="M21.6625 119.572C21.2449 116.206 22.9457 113.899 26.7497 113.427C30.7714 112.928 34.1659 114.049 37.5356 113.631C39.7635 113.355 41.5371 112.529 41.2204 109.976C41.0319 108.457 39.8233 108.054 38.5737 108.209C36.0192 108.526 33.8577 110.229 29.347 110.789C25.9231 111.214 24.2604 110.261 23.3518 108.278C22.6672 107.207 22.4579 105.963 22.2897 104.607C21.9325 101.728 18.8505 100.015 18.5479 96.6889C18.511 92.8334 21.1755 90.7384 26.0126 90.1382C34.9253 89.0324 35.9299 95.7999 31.9052 99.8283C29.7023 102.086 30.3444 105.481 35.0724 104.894C43.2781 103.876 41.9986 100.232 39.0869 98.1117C35.5237 95.1904 35.6183 88.8375 43.335 87.88C48.4437 87.2462 50.7583 88.998 51.7941 92.4528C52.7072 95.8139 49.6131 99.3412 50.1116 103.359C50.8327 109.171 53.4938 111.045 53.3391 116.027C52.805 120.173 48.7473 123.489 38.9646 124.702C26.085 126.3 22.2759 124.512 21.6629 119.571L21.6625 119.572Z" fill="white"/>
<path d="M58.1008 115.27C57.1059 111.259 58.7396 108.41 58.2342 104.336C57.7289 100.264 54.4309 96.8135 54.3475 92.1362C54.5009 88.4792 57.0423 86.2884 61.6079 85.7219C66.5534 85.1083 69.7921 86.3053 70.2907 90.3235C70.9309 95.4829 66.1397 98.2275 66.5304 101.377C66.8539 103.983 68.6738 104.42 71.554 104.062C75.7384 103.543 77.5746 101 77.3252 98.9897C76.948 95.9498 73.0913 94.6639 72.6331 90.9717C72.1681 87.2238 74.2029 84.0503 79.1484 83.4367C84.0392 82.8299 86.517 84.5614 87.5517 88.0163C88.513 91.7571 85.5005 95.4942 86.0328 99.7848C86.6325 104.618 91.1667 107.805 91.2625 113.032C91.0688 116.364 89.7699 118.344 86.5098 118.749C83.5201 119.12 81.6537 117.861 81.3101 115.092C81.0205 112.758 82.2722 110.398 82.0633 108.714C81.841 106.923 81.0056 106.418 79.4298 106.614C78.017 106.789 76.9838 107.8 77.0565 109.721C77.1769 111.139 77.6044 112.354 77.5408 114.072C77.5518 117.71 74.2884 120.32 68.6365 121.021C62.6584 121.763 59.3397 119.473 58.101 115.27L58.1008 115.27Z" fill="white"/>
<path d="M114.911 88.8125C112.457 83.7147 111.986 79.4709 122.529 78.1628C129.377 77.3132 132.398 78.5373 133.562 82.5839C134.61 87.4705 130.953 89.5798 131.627 95.0096C132.328 100.658 136.396 101.861 136.574 106.858C136.42 110.957 133.974 113.025 129.788 113.544C125.441 114.084 122.984 112.513 122.573 108.761C121.946 104.151 125.506 103.489 125.001 98.9749C124.542 95.723 123.926 94.3117 122.621 94.4735C120.502 94.7364 119.03 98.888 119.55 102.187C119.731 104.537 120.708 106.18 121.059 108.561C121.456 112.206 119.783 114.289 115.543 114.815C111.359 115.334 109.227 113.723 108.776 110.085C108.48 107.697 108.971 105.872 108.681 103.535C108.27 100.223 105.829 96.557 103.763 96.8133C102.459 96.9751 102.206 98.4943 102.611 101.753C103.17 106.26 106.783 106.032 107.356 110.649C107.821 114.395 105.822 116.518 101.528 117.051C97.2904 117.577 94.3566 116.176 93.315 112.225C92.1585 107.35 95.8627 105.183 95.2166 99.5273C94.4881 94.1043 90.373 92.9593 90.3032 87.9513C90.3343 83.7563 92.9653 81.831 99.8668 80.9747C110.411 79.6664 110.936 83.9034 109.857 89.4396C109.057 93.6755 110.813 97.5921 113.422 97.2685C115.922 96.9583 116.721 92.7247 114.911 88.8125Z" fill="white"/>
<path d="M160.344 83.1754C157.89 78.0775 157.42 73.8338 167.962 72.5257C174.81 71.6761 177.831 72.9001 178.996 76.9467C180.043 81.8334 176.386 83.9427 177.06 89.3725C177.761 95.0211 181.829 96.2241 182.007 101.221C181.853 105.32 179.406 107.388 175.221 107.907C170.874 108.447 168.417 106.876 168.006 103.124C167.379 98.5135 170.939 97.8519 170.434 93.3378C169.975 90.0858 169.359 88.6745 168.055 88.8363C165.935 89.0993 164.463 93.2508 164.983 96.5497C165.164 98.8994 166.141 100.543 166.491 102.924C166.889 106.569 165.216 108.652 160.976 109.178C156.792 109.697 154.661 108.086 154.209 104.448C153.913 102.06 154.404 100.235 154.114 97.8983C153.703 94.586 151.262 90.9199 149.197 91.1761C147.892 91.338 147.639 92.8572 148.044 96.1159C148.603 100.623 152.216 100.395 152.789 105.012C153.254 108.757 151.255 110.881 146.962 111.414C142.724 111.94 139.79 110.539 138.748 106.588C137.592 101.713 141.296 99.5456 140.649 93.8903C139.921 88.4671 135.806 87.3222 135.736 82.3142C135.767 78.1192 138.398 76.1938 145.3 75.3375C155.843 74.0294 156.368 78.2664 155.289 83.8026C154.492 88.0383 156.246 91.955 158.855 91.6313C161.355 91.3211 162.154 87.0875 160.344 83.1754Z" fill="white"/>
<path d="M184.047 99.4236C183.629 96.0576 185.329 93.7511 189.133 93.279C193.155 92.7801 196.55 93.9011 199.919 93.483C202.147 93.2066 203.921 92.3808 203.604 89.8279C203.416 88.3091 202.207 87.9056 200.957 88.0608C198.403 88.3777 196.241 90.0815 191.73 90.6412C188.307 91.0659 186.643 90.1136 185.736 88.1305C185.051 87.0587 184.841 85.8148 184.673 84.459C184.316 81.5801 181.233 79.8669 180.932 76.5409C180.895 72.6854 183.559 70.5904 188.395 69.9904C197.308 68.8845 198.314 75.6519 194.288 79.6805C192.085 81.9382 192.728 85.3331 197.455 84.7465C205.662 83.7282 204.381 80.0837 201.47 77.9638C197.907 75.0426 198.002 68.6896 205.719 67.7321C210.828 67.0982 213.141 68.8502 214.177 72.3049C215.091 75.6659 211.997 79.1932 212.495 83.2114C213.217 89.023 215.877 90.8975 215.722 95.8789C215.189 100.025 211.13 103.341 201.348 104.554C188.468 106.153 184.66 104.364 184.047 99.4233L184.047 99.4236Z" fill="white"/>
</g>
<defs>
<clipPath id="clip0_581_13852">
<rect width="217" height="111" fill="white" transform="translate(0 26.7196) rotate(-7.07289)"/>
</clipPath>
</defs>
</svg>
