<svg width="196" height="111" viewBox="0 0 196 111" fill="none" xmlns="http://www.w3.org/2000/svg">
<g clip-path="url(#clip0_581_13890)">
<path d="M26.1586 56.9093C13.1519 55.8459 9.14093 47.8376 9.72468 40.6978C9.97397 37.6486 10.9414 35.3304 12.0916 33.5556C8.47309 31.5497 5.60436 27.1335 6.24201 19.3343C7.61294 2.5662 19.3413 1.24821 30.6339 2.17147C41.956 3.09714 53.3461 6.30525 51.9751 23.0734C51.3392 30.8517 47.7915 34.743 43.8871 36.1405C44.7379 38.081 45.3186 40.5298 45.0686 43.5874C44.4849 50.7273 39.2107 57.9764 26.1586 56.9093Z" fill="#FF9EBC"/>
<path d="M37.5116 42.9696C37.0638 48.4464 32.5187 49.8527 26.774 49.383C21.1515 48.9233 16.8341 46.7924 17.2819 41.3157C17.7746 35.2888 23.0702 35.2313 23.4086 31.0922C23.6524 28.1103 22.2356 27.3814 20.7691 27.2615C19.3637 27.1466 18.172 27.417 17.0112 27.3221C14.2606 27.0972 13.4758 23.9085 13.7992 19.9522C14.5009 11.3697 17.7339 8.6934 30.0186 9.69778C42.3644 10.7071 45.1197 13.873 44.418 22.4555C44.0946 26.4118 42.7411 29.4257 39.9906 29.2008C38.8909 29.1109 37.8202 28.6556 36.3537 28.5357C34.8872 28.4158 33.3709 28.9049 33.1271 31.8868C32.7887 36.0258 38.0045 36.9428 37.5118 42.9696L37.5116 42.9696Z" fill="#FF9EBC"/>
<path d="M69.4748 60.6345C65.4306 60.3039 62.287 59.1061 59.9582 57.383C57.3805 58.7049 54.0843 59.3762 50.0399 59.0455C35.6109 57.8659 34.3142 47.4646 34.2605 44.304L34.2634 43.9299C34.4155 39.3317 36.1613 36.2801 37.3167 34.2607C38.3544 32.4471 38.4869 32.2148 38.1891 30.5881L38.101 30.1073L38.076 29.6212C37.7478 23.3539 38.1028 15.4554 43.8005 9.94697C48.2972 5.60047 54.9935 3.85635 64.2724 4.61497C73.5608 5.37437 79.8874 8.17888 83.6128 13.1872C88.3318 19.5324 87.3991 27.3964 86.0593 33.5401L85.9555 34.0178L85.7905 34.478C85.2313 36.0346 85.3252 36.2875 86.0545 38.2457C86.8666 40.4261 88.0936 43.7205 87.4967 48.2824L87.4376 48.6538C86.8714 51.7615 83.9005 61.8139 69.4745 60.6345L69.4748 60.6345Z" fill="#FF9EBC"/>
<path d="M78.6503 31.9325C76.0222 39.2562 80.7967 41.0545 79.9783 47.2999C79.1972 51.5846 76.141 53.6029 70.0903 53.1083C64.4067 52.6436 61.9922 49.8121 62.281 46.2799C62.6342 41.9603 67.1884 42.6985 67.3625 40.5689C67.4671 39.2901 66.6855 38.3086 61.5522 37.8889C56.419 37.4692 55.4273 38.3056 55.3227 39.5846C55.1486 41.7139 59.8236 41.7305 59.4704 46.0501C59.1816 49.5823 56.3393 51.984 50.6557 51.5193C44.6052 51.0246 41.9164 48.5364 41.8425 44.182C42.0494 37.8866 47.0526 36.8877 45.6479 29.2343C45.0721 18.2198 47.645 10.8324 63.6575 12.1415C79.6701 13.4507 81.0138 21.0968 78.6505 31.9325L78.6503 31.9325ZM69.3344 30.7438C69.5584 28.0034 67.3005 27.0217 62.473 26.627C57.7055 26.2372 55.3192 26.8392 55.0952 29.5796C54.9161 31.77 56.6236 32.7064 61.9404 33.1411C67.3183 33.5808 69.1553 32.9339 69.3344 30.7438Z" fill="#FF9EBC"/>
<path d="M95.7553 62.7832C76.4766 61.207 73.1627 51.9177 73.7771 44.402C74.079 40.7102 75.58 37.5902 77.891 35.3776C76.518 32.7772 75.7974 29.4668 76.1436 25.2334C76.6159 19.4564 79.9811 6.20604 100.978 7.92273C111.619 8.79271 124.077 12.5934 123.001 25.7558C122.728 29.1011 121.524 31.9833 119.665 34.1526C121.59 37.149 122.382 40.8626 122.02 45.2829C120.632 62.2654 104.969 63.5364 95.7553 62.7832Z" fill="#FF9EBC"/>
<path d="M97.1822 37.7982C87.8962 36.2441 83.0384 33.9465 83.7003 25.851C84.2427 19.2171 88.1403 14.4495 100.363 15.4488C112.525 16.4432 115.867 19.9635 115.444 25.1377C115.125 29.0331 112.797 31.1703 109.558 30.9055C105.097 30.5407 103.094 27.1911 98.6942 26.8314C96.8608 26.6815 95.5682 27.4342 95.4337 29.0783C95.2646 31.1468 97.9967 32.351 101.822 32.9702C110.516 34.2329 115.095 36.9347 114.463 44.6646C113.841 52.2729 109.082 56.2957 96.3702 55.2565C84.3913 54.2771 80.881 50.559 81.3339 45.0194C81.6324 41.3677 83.9755 39.0477 87.8258 39.3625C92.6533 39.7572 94.6561 43.1068 99.3014 43.4866C100.951 43.6215 102.294 42.9957 102.433 41.2926C102.588 39.4048 101.074 38.3614 97.182 37.798L97.1822 37.7982Z" fill="#FF9EBC"/>
<path d="M128.956 65.3138C115.949 64.2504 111.938 56.2422 112.522 49.1023C112.771 46.0531 113.739 43.735 114.889 41.9602C111.27 39.9542 108.402 35.538 109.039 27.7389C110.411 10.9708 122.139 9.65277 133.431 10.576C144.753 11.5017 156.143 14.7098 154.772 31.4779C154.137 39.2562 150.589 43.1476 146.684 44.545C147.535 46.4855 148.116 48.9344 147.866 51.992C147.282 59.1318 142.008 66.3809 128.956 65.3138Z" fill="#FF9EBC"/>
<path d="M140.309 51.3741C139.862 56.8509 135.317 58.2572 129.572 57.7875C123.949 57.3279 119.632 55.197 120.08 49.7202C120.572 43.6934 125.868 43.6358 126.206 39.4968C126.45 36.5149 125.033 35.786 123.567 35.6661C122.162 35.5512 120.97 35.8215 119.809 35.7266C117.058 35.5017 116.274 32.313 116.597 28.3567C117.299 19.7742 120.532 17.0979 132.816 18.1023C145.162 19.1117 147.918 22.2775 147.216 30.8601C146.892 34.8163 145.539 37.8303 142.788 37.6054C141.689 37.5155 140.618 37.0601 139.152 36.9402C137.685 36.8203 136.169 37.3094 135.925 40.2913C135.587 44.4304 140.802 45.3473 140.31 51.3742L140.309 51.3741Z" fill="#FF9EBC"/>
<path d="M164.459 68.2777C156.015 67.5874 138.444 66.1509 139.716 50.5902C140.04 46.6275 141.726 43.3723 144.347 41.1746C143.559 38.6432 143.664 36.2778 143.778 34.7882C143.672 34.5005 143.468 34.0358 143.311 33.6783C142.422 31.6565 141.08 28.602 141.535 24.6373L141.569 24.3314L141.629 24.0297C142.223 21.0362 145.258 11.3592 159.359 12.5121C163.224 12.8281 166.529 13.9819 169.043 15.8089C171.782 14.3352 175.154 13.6808 178.865 13.9841C191.566 15.0225 193.705 23.9854 194.035 27.79C194.309 32.2413 192.412 35.5067 191.026 37.8921C190.488 38.8184 189.752 40.0859 189.711 40.5856C189.545 42.6143 189.809 44.0416 190.143 45.8468C190.638 48.5257 191.254 51.8591 190.181 56.31L190.094 56.6666L189.975 57.012C187.921 62.9346 181.827 69.698 164.458 68.278L164.459 68.2777Z" fill="#FF9EBC"/>
<path d="M147.273 51.208C147.582 47.4343 149.971 45.3021 154.249 45.6519C158.772 46.0217 162.239 48.0195 166.028 48.3293C168.534 48.5342 170.666 48.0343 170.9 45.1741C171.04 43.4688 169.805 42.757 168.4 42.6421C165.527 42.4072 162.77 43.7738 157.697 43.359C153.847 43.0442 152.24 41.6255 151.697 39.2535C151.19 37.9247 151.243 36.5211 151.367 34.9987C151.631 31.7731 148.642 29.2012 149.067 25.4983C149.905 21.2776 153.304 19.5936 158.743 20.0383C168.766 20.8578 168.328 28.481 162.997 31.9666C160.068 33.9341 159.998 37.7885 165.316 38.2233C174.544 38.9778 173.97 34.7029 171.261 31.7227C168.02 27.7201 169.57 20.801 178.249 21.5105C183.994 21.9802 186.132 24.4235 186.48 28.4346C186.717 32.3142 182.522 35.4636 182.154 39.9679C181.622 46.4799 184.112 49.1338 182.808 54.5425C181.279 58.952 176.074 61.651 165.074 60.7516C150.589 59.5674 146.82 56.7478 147.273 51.2082L147.273 51.208Z" fill="#FF9EBC"/>
<path d="M22.0402 97.4826C17.4531 97.1076 3.49217 95.9662 2.33448 83.253L2.30924 82.8598C2.16453 79.0999 3.3492 75.994 4.30174 73.497C4.75844 72.2976 5.23132 71.0573 5.28953 70.3453C5.34652 69.6482 5.17716 68.9282 4.8466 67.6116C4.27504 65.3346 3.49207 62.2137 4.26649 58.1041L4.34245 57.7466C7.29893 45.393 20.8539 46.5012 25.9567 46.9184C34.2486 47.5964 40.1547 50.1574 44.0122 54.7473C47.853 59.3189 49.3335 65.577 48.537 73.879C48.1691 79.301 46.9394 87.3942 40.7321 92.7129C36.2161 96.5823 30.1027 98.1416 22.0405 97.4824L22.0402 97.4826Z" fill="#FF9EBC"/>
<path d="M9.88598 82.5769C9.72959 78.5052 12.5258 74.8884 12.8467 70.9635C13.1985 66.6607 10.8543 64.0865 11.7184 59.5021C12.7099 55.3593 15.8917 53.6725 25.3412 54.445C38.2477 55.5003 42.0968 61.6074 40.9891 73.1564C40.149 85.4313 35.3458 90.9938 22.6554 89.9562C13.2057 89.1836 10.2584 86.668 9.88602 82.5765L9.88598 82.5769ZM24.585 77.6628C30.4711 78.1441 33.1989 76.6885 33.52 72.7615C33.753 69.9119 31.3121 68.52 25.6421 68.0564C22.6721 67.8136 20.2341 68.3732 19.9702 71.6009C19.6009 76.118 21.7225 77.4288 24.585 77.6628Z" fill="#FF9EBC"/>
<path d="M55.6318 100.229C50.683 99.8245 35.6213 98.5931 34.932 84.969L34.922 84.6363C34.8975 80.6261 36.2461 77.3202 37.2321 74.9064C37.5164 74.2066 37.9077 73.2493 37.9798 72.9021C37.9582 72.8413 37.7402 72.0411 37.5801 71.4552C36.9785 69.2456 36.067 65.9069 36.882 61.4178L36.9255 61.1973C39.7213 48.0444 53.5779 49.1772 59.4945 49.661C66.3991 50.2255 80.767 51.4002 79.6021 65.6485C79.3798 68.3678 78.5017 70.7229 77.1281 72.5682C77.4157 73.8919 77.5054 75.3388 77.3787 76.8885C77.2901 77.9721 77.0831 78.9994 76.7712 79.957C77.9763 81.9496 78.5599 84.3799 78.3426 87.0384C77.1205 101.986 61.5085 100.71 55.632 100.229L55.6318 100.229Z" fill="#FF9EBC"/>
<path d="M42.5049 84.5947C42.4782 80.2608 45.2787 76.5915 45.516 73.6894C45.8019 70.1929 43.4532 67.6734 44.3437 62.7655C45.3166 58.1879 48.5654 56.3437 58.8794 57.187C70.1657 58.1097 72.4367 60.2424 72.0453 65.0304C71.8475 67.4495 70.7455 69.6341 67.6669 69.3824C64.1572 69.0955 63.0394 68.1373 59.421 67.8415C56.722 67.6208 54.4553 68.0845 54.2618 70.4512C54.1606 71.6881 54.9405 72.7814 56.8846 72.9403C60.503 73.2362 62.7174 71.4131 66.4971 71.7221C69.0896 71.9341 70.0681 73.2592 69.8219 76.2706C69.6284 78.6373 68.408 80.2711 65.8692 80.0635C62.8455 79.8163 60.113 76.6692 56.6032 76.3822C54.5516 76.2145 53.6573 77.1688 53.5342 78.6744C53.3275 81.2028 55.6468 82.0964 58.4006 82.3216C62.019 82.6174 63.3851 81.8623 67.1647 82.1714C70.0809 82.4098 70.944 84.4845 70.7857 86.4206C70.3505 91.7441 67.2638 93.6037 56.2477 92.703C45.7711 91.8465 42.7337 89.1078 42.5051 84.5947L42.5049 84.5947Z" fill="#FF9EBC"/>
<path d="M82.3799 102.253C68.0426 101.081 65.5922 92.2766 65.2041 88.5454C64.8084 83.6635 66.4818 80.0458 67.5892 77.6504C67.8456 77.0986 68.1834 76.3672 68.3091 75.9863C68.2472 75.5501 68.0225 74.6881 67.8529 74.038C67.1559 71.3597 66.1029 67.3119 67.1604 62.6081C67.8429 59.7127 71.0593 50.6064 84.5553 51.7098C98.883 52.8812 99.1588 63.2179 98.902 66.3596C98.691 68.9405 97.8577 71.018 96.8446 72.6878C100.156 74.3855 103.752 78.1738 103.062 86.622C102.536 93.0479 99.1507 103.624 82.3801 102.253L82.3799 102.253Z" fill="#FF9EBC"/>
<path d="M95.5039 86.0041C94.9411 92.8879 91.365 95.4114 82.995 94.7271C75.2722 94.0957 73.0805 90.9928 72.7453 87.7711C72.3675 83.0852 75.6101 79.9932 75.8872 76.604C76.1596 73.2714 73.4482 69.2042 74.5592 64.2616C75.4738 60.3832 78.5931 58.799 83.9395 59.2361C89.3934 59.682 91.6785 61.6552 91.3444 65.7417C90.9443 70.6347 85.8269 72.0576 85.5323 75.6612C85.3608 77.7591 86.6488 78.6212 88.3768 78.7625C89.6188 78.864 90.4417 78.7685 91.5224 78.8569C94.3837 79.0908 95.9172 80.9497 95.5039 86.0044L95.5039 86.0041Z" fill="#FF9EBC"/>
<path d="M103.272 104.069C90.403 103.017 88.8035 93.6584 88.6198 90.8169L88.6048 90.4289C88.5342 84.9965 90.8465 81.7291 92.2277 79.7767C93.1133 78.5258 93.1995 78.3551 93.2487 77.7526C93.2805 77.364 93.2861 77.2947 92.6141 75.9462C91.5379 73.7906 89.7379 70.1829 90.7033 64.7612L90.7563 64.4906C92.3955 56.9043 98.6188 52.8046 107.404 53.5229C120.373 54.5832 121.971 64.0768 122.151 66.9602L122.166 67.4054C122.185 72.8717 119.825 76.1161 118.415 78.0556C117.526 79.2768 117.52 79.3482 117.489 79.7344C117.44 80.3371 117.497 80.5193 118.168 81.8975C119.213 84.0483 120.965 87.648 120.013 92.9967L119.957 93.2796C119.347 96.0816 116.34 105.137 103.272 104.069Z" fill="#FF9EBC"/>
<path d="M114.584 67.4258C114.604 73.1649 110.371 73.7384 109.931 79.1165C109.47 84.7633 113.553 86.0189 112.547 91.6739C111.678 95.6639 108.476 96.9179 103.887 96.5426C99.3499 96.1717 96.4492 94.4188 96.1855 90.3362C96.1106 84.5927 100.344 84.017 100.805 78.3704C101.245 72.9923 97.1615 71.7389 98.1683 66.0837C99.0424 62.0392 102.252 60.678 106.788 61.0489C111.432 61.4285 114.325 63.2886 114.584 67.4258Z" fill="#FF9EBC"/>
<path d="M126.983 105.953C118.958 105.296 105.658 102.19 106.756 88.7651C107.022 85.5101 108.272 82.7267 110.207 80.6652C109.11 78.3389 108.552 75.4436 108.848 71.8275C109.286 66.46 112.396 54.1464 131.742 55.7281C149.502 57.1801 152.566 65.614 152.008 72.4326C151.772 75.3242 150.799 77.8492 149.287 79.831C150.835 82.5282 151.457 85.8156 151.141 89.6859C150.588 96.4541 146.714 107.566 126.983 105.953Z" fill="#FF9EBC"/>
<path d="M128.316 83.0021C120.111 81.6274 115.82 79.598 116.404 72.4454C116.884 66.5844 120.326 62.3714 131.126 63.2544C141.872 64.1329 144.824 67.2452 144.451 71.8147C144.169 75.2566 142.113 77.1476 139.25 76.9135C135.308 76.5912 133.539 73.6307 129.651 73.3128C128.031 73.1804 126.889 73.8438 126.77 75.297C126.621 77.1261 129.035 78.1881 132.415 78.735C140.097 79.8515 144.142 82.2391 143.583 89.0682C143.034 95.7924 138.83 99.3449 127.598 98.4265C117.014 97.5612 113.913 94.2762 114.313 89.3832C114.577 86.1555 116.646 84.105 120.048 84.3831C124.314 84.7319 126.084 87.6925 130.188 88.028C131.646 88.1472 132.833 87.5953 132.956 86.0896C133.092 84.4222 131.754 83.501 128.316 83.0021Z" fill="#FF9EBC"/>
<path d="M169.804 109.508C165.986 109.196 163.056 108.151 160.865 106.668C158.454 107.775 155.383 108.329 151.552 108.016C138.883 106.981 137.3 97.6234 137.116 94.7819L137.102 94.4933C136.975 89.625 138.976 86.4612 140.301 84.3686C141.174 82.9876 141.454 82.5096 141.535 81.6282C141.575 81.0523 141.427 80.628 140.776 79.133C139.787 76.8621 138.292 73.4293 139.219 68.6195C140.892 60.8688 147.035 56.7626 155.684 57.4698C159.545 57.7854 162.507 58.8077 164.715 60.2691C167.108 59.19 170.149 58.6524 173.936 58.962C182.553 59.6665 187.986 64.6832 188.467 72.3817L188.481 72.7296C188.56 77.5792 186.522 80.6934 185.172 82.7543C184.276 84.1228 184.078 84.4808 184.021 85.1737C183.952 86.022 184.149 86.5308 184.781 88.0115C185.755 90.2896 187.227 93.7332 186.312 98.5141L186.251 98.7988C185.608 101.573 182.523 110.548 169.803 109.508L169.804 109.508Z" fill="#FF9EBC"/>
<path d="M162.956 95.5249C163.312 91.1695 167.591 91.3566 167.802 88.7757C167.912 87.4317 167.325 86.6248 162.574 86.2363C157.767 85.8433 156.95 86.5355 156.84 87.8794C156.629 90.4603 160.99 90.9796 160.634 95.335C160.299 99.4237 157.189 100.901 152.167 100.49C147.739 100.128 144.946 98.3841 144.682 94.3014C144.55 89.2572 148.575 87.9077 149.086 82.3179C149.476 76.883 145.72 74.9523 146.665 70.049C147.539 66.0044 150.641 64.6344 155.069 64.9965C160.037 65.4026 162.933 67.2101 162.594 71.3513C162.247 75.5996 157.877 75.1873 157.644 78.037C157.526 79.4902 158.171 80.2469 163.031 80.6443C167.836 81.0372 168.596 80.3953 168.714 78.9421C168.947 76.0924 164.57 75.7895 164.917 71.5412C165.256 67.4 168.623 66.1046 173.321 66.4887C177.803 66.8551 180.641 68.7107 180.9 72.848C180.982 77.8353 176.908 79.1257 176.464 84.5563C176.007 90.1507 179.812 92.1404 178.864 97.096C177.94 101.082 174.901 102.349 170.419 101.982C165.559 101.585 162.622 99.6136 162.956 95.5249Z" fill="#FF9EBC"/>
<path d="M37.5116 42.9696C37.0638 48.4464 32.5187 49.8527 26.774 49.383C21.1515 48.9233 16.8341 46.7924 17.2819 41.3157C17.7746 35.2888 23.0702 35.2313 23.4086 31.0922C23.6524 28.1103 22.2356 27.3814 20.7691 27.2615C19.3637 27.1466 18.172 27.417 17.0112 27.3221C14.2606 27.0972 13.4758 23.9085 13.7992 19.9522C14.5009 11.3697 17.7339 8.6934 30.0186 9.69778C42.3644 10.7071 45.1197 13.873 44.418 22.4555C44.0946 26.4118 42.7411 29.4257 39.9906 29.2008C38.8909 29.1109 37.8202 28.6556 36.3537 28.5357C34.8872 28.4158 33.3709 28.9049 33.1271 31.8868C32.7887 36.0258 38.0045 36.9428 37.5118 42.9696L37.5116 42.9696Z" fill="white"/>
<path d="M78.6503 31.9325C76.0222 39.2562 80.7967 41.0545 79.9783 47.2999C79.1972 51.5846 76.141 53.6029 70.0903 53.1083C64.4067 52.6436 61.9922 49.8121 62.281 46.2799C62.6342 41.9603 67.1884 42.6985 67.3625 40.5689C67.4671 39.2901 66.6855 38.3086 61.5522 37.8889C56.419 37.4692 55.4273 38.3056 55.3227 39.5846C55.1486 41.7139 59.8236 41.7305 59.4704 46.0501C59.1816 49.5823 56.3393 51.984 50.6557 51.5193C44.6052 51.0246 41.9164 48.5364 41.8425 44.182C42.0494 37.8866 47.0526 36.8877 45.6479 29.2343C45.0721 18.2198 47.645 10.8324 63.6575 12.1415C79.6701 13.4507 81.0138 21.0968 78.6505 31.9325L78.6503 31.9325ZM69.3344 30.7438C69.5584 28.0034 67.3005 27.0217 62.473 26.627C57.7055 26.2372 55.3192 26.8392 55.0952 29.5796C54.9161 31.77 56.6236 32.7064 61.9404 33.1411C67.3183 33.5808 69.1553 32.9339 69.3344 30.7438Z" fill="white"/>
<path d="M97.1827 37.7982C87.8967 36.2441 83.0389 33.9465 83.7008 25.851C84.2432 19.2171 88.1407 14.4495 100.363 15.4488C112.525 16.4432 115.867 19.9635 115.444 25.1377C115.126 29.0331 112.798 31.1703 109.559 30.9055C105.097 30.5407 103.094 27.1911 98.6947 26.8314C96.8613 26.6815 95.5687 27.4342 95.4342 29.0783C95.2651 31.1468 97.9972 32.351 101.823 32.9702C110.517 34.2329 115.095 36.9347 114.463 44.6646C113.841 52.2729 109.082 56.2957 96.3707 55.2565C84.3918 54.2771 80.8815 50.559 81.3344 45.0194C81.6329 41.3677 83.976 39.0477 87.8263 39.3625C92.6538 39.7572 94.6566 43.1068 99.3019 43.4866C100.952 43.6215 102.295 42.9957 102.434 41.2926C102.588 39.4048 101.074 38.3614 97.1825 37.798L97.1827 37.7982Z" fill="white"/>
<path d="M140.309 51.3741C139.862 56.8509 135.317 58.2572 129.572 57.7875C123.949 57.3279 119.632 55.197 120.08 49.7202C120.572 43.6934 125.868 43.6358 126.206 39.4968C126.45 36.5149 125.033 35.786 123.567 35.6661C122.162 35.5512 120.97 35.8215 119.809 35.7266C117.058 35.5017 116.274 32.313 116.597 28.3567C117.299 19.7742 120.532 17.0979 132.816 18.1023C145.162 19.1117 147.918 22.2775 147.216 30.8601C146.892 34.8163 145.539 37.8303 142.788 37.6054C141.689 37.5155 140.618 37.0601 139.152 36.9402C137.685 36.8203 136.169 37.3094 135.925 40.2913C135.587 44.4304 140.802 45.3473 140.31 51.3742L140.309 51.3741Z" fill="white"/>
<path d="M147.274 51.208C147.582 47.4343 149.971 45.3021 154.25 45.6519C158.773 46.0217 162.239 48.0195 166.028 48.3293C168.534 48.5342 170.667 48.0343 170.901 45.1741C171.04 43.4688 169.806 42.757 168.4 42.6421C165.527 42.4072 162.771 43.7738 157.697 43.359C153.847 43.0442 152.241 41.6255 151.697 39.2535C151.19 37.9247 151.243 36.5211 151.368 34.9987C151.632 31.7731 148.643 29.2012 149.068 25.4983C149.905 21.2776 153.305 19.5936 158.744 20.0383C168.767 20.8578 168.328 28.481 162.998 31.9666C160.069 33.9341 159.999 37.7885 165.317 38.2233C174.545 38.9778 173.971 34.7029 171.262 31.7227C168.021 27.7201 169.57 20.801 178.25 21.5105C183.994 21.9802 186.133 24.4235 186.481 28.4346C186.718 32.3142 182.523 35.4636 182.155 39.9679C181.622 46.4799 184.113 49.1338 182.809 54.5425C181.28 58.952 176.075 61.651 165.074 60.7516C150.589 59.5674 146.821 56.7478 147.274 51.2082L147.274 51.208Z" fill="white"/>
<path d="M9.88598 82.5769C9.72959 78.5052 12.5258 74.8884 12.8467 70.9635C13.1985 66.6607 10.8543 64.0865 11.7184 59.5021C12.7099 55.3593 15.8917 53.6725 25.3412 54.445C38.2477 55.5003 42.0968 61.6074 40.9891 73.1564C40.149 85.4313 35.3458 90.9938 22.6554 89.9562C13.2057 89.1836 10.2584 86.668 9.88602 82.5765L9.88598 82.5769ZM24.585 77.6628C30.4711 78.1441 33.1989 76.6885 33.52 72.7615C33.753 69.9119 31.3121 68.52 25.6421 68.0564C22.6721 67.8136 20.2341 68.3732 19.9702 71.6009C19.6009 76.118 21.7225 77.4288 24.585 77.6628Z" fill="white"/>
<path d="M42.5044 84.5948C42.4777 80.261 45.2782 76.5917 45.5155 73.6895C45.8014 70.193 43.4527 67.6735 44.3432 62.7657C45.3161 58.188 48.5649 56.3438 58.879 57.1871C70.1653 58.1098 72.4362 60.2425 72.0448 65.0305C71.847 67.4496 70.745 69.6343 67.6664 69.3826C64.1567 69.0956 63.0389 68.1375 59.4205 67.8416C56.7215 67.621 54.4548 68.0846 54.2613 70.4513C54.1602 71.6882 54.94 72.7815 56.8841 72.9405C60.5025 73.2363 62.7169 71.4132 66.4966 71.7222C69.0891 71.9342 70.0676 73.2594 69.8214 76.2707C69.6279 78.6374 68.4075 80.2712 65.8687 80.0636C62.845 79.8164 60.1125 76.6693 56.6027 76.3823C54.5511 76.2146 53.6569 77.1689 53.5338 78.6746C53.327 81.203 55.6463 82.0966 58.4001 82.3217C62.0185 82.6175 63.3846 81.8625 67.1643 82.1715C70.0805 82.4099 70.9435 84.4846 70.7852 86.4208C70.35 91.7442 67.2633 93.6038 56.2472 92.7031C45.7706 91.8466 42.7332 89.1079 42.5046 84.5948L42.5044 84.5948Z" fill="white"/>
<path d="M95.5039 86.0043C94.9411 92.888 91.365 95.4115 82.995 94.7272C75.2722 94.0958 73.0805 90.9929 72.7453 87.7712C72.3675 83.0853 75.6101 79.9933 75.8872 76.6041C76.1596 73.2715 73.4482 69.2044 74.5592 64.2617C75.4738 60.3833 78.5931 58.7991 83.9395 59.2362C89.3934 59.6821 91.6785 61.6553 91.3444 65.7419C90.9443 70.6348 85.8269 72.0578 85.5323 75.6613C85.3608 77.7592 86.6488 78.6213 88.3768 78.7626C89.6188 78.8642 90.4417 78.7686 91.5224 78.857C94.3837 79.0909 95.9172 80.9498 95.5039 86.0045L95.5039 86.0043Z" fill="white"/>
<path d="M114.584 67.426C114.604 73.165 110.371 73.7385 109.931 79.1166C109.47 84.7635 113.553 86.0191 112.547 91.674C111.678 95.664 108.476 96.918 103.887 96.5428C99.3499 96.1719 96.4492 94.419 96.1855 90.3363C96.1106 84.5928 100.344 84.0171 100.805 78.3705C101.245 72.9924 97.1615 71.739 98.1683 66.0839C99.0424 62.0393 102.252 60.6781 106.788 61.049C111.432 61.4286 114.325 63.2887 114.584 67.426Z" fill="white"/>
<path d="M128.316 83.0022C120.111 81.6275 115.82 79.5981 116.404 72.4455C116.884 66.5845 120.326 62.3715 131.126 63.2545C141.872 64.133 144.824 67.2453 144.451 71.8148C144.169 75.2567 142.113 77.1477 139.25 76.9137C135.308 76.5914 133.539 73.6308 129.651 73.3129C128.031 73.1805 126.889 73.8439 126.77 75.2972C126.621 77.1263 129.035 78.1882 132.415 78.7352C140.097 79.8516 144.142 82.2392 143.583 89.0684C143.034 95.7926 138.83 99.345 127.598 98.4266C117.014 97.5613 113.913 94.2763 114.313 89.3833C114.577 86.1556 116.646 84.1051 120.048 84.3833C124.314 84.732 126.084 87.6927 130.188 88.0281C131.646 88.1473 132.833 87.5954 132.956 86.0897C133.092 84.4223 131.754 83.5011 128.316 83.0022Z" fill="white"/>
<path d="M162.956 95.525C163.312 91.1697 167.591 91.3567 167.802 88.7758C167.912 87.4319 167.325 86.6249 162.573 86.2364C157.767 85.8435 156.949 86.5356 156.839 87.8796C156.628 90.4604 160.989 90.9798 160.633 95.3351C160.299 99.4238 157.188 100.901 152.167 100.49C147.739 100.128 144.945 98.3842 144.682 94.3016C144.55 89.2573 148.574 87.9078 149.085 82.318C149.476 76.8831 145.719 74.9524 146.665 70.0491C147.539 66.0045 150.64 64.6346 155.069 64.9966C160.036 65.4027 162.933 67.2103 162.594 71.3514C162.247 75.5997 157.877 75.1874 157.644 78.0371C157.525 79.4903 158.17 80.247 163.03 80.6444C167.836 81.0373 168.595 80.3954 168.714 78.9422C168.947 76.0925 164.569 75.7896 164.917 71.5413C165.255 67.4002 168.623 66.1047 173.321 66.4888C177.802 66.8553 180.641 68.7109 180.9 72.8481C180.981 77.8354 176.907 79.1259 176.463 84.5564C176.006 90.1508 179.812 92.1405 178.863 97.0962C177.94 101.082 174.901 102.349 170.419 101.983C165.558 101.585 162.621 99.6137 162.956 95.525Z" fill="white"/>
</g>
<defs>
<clipPath id="clip0_581_13890">
<rect width="188" height="96" fill="white" transform="translate(7.82275) rotate(4.67399)"/>
</clipPath>
</defs>
</svg>
